<svg width="1250" height="809" viewBox="0 0 1250 809" fill="none" xmlns="http://www.w3.org/2000/svg">
<g filter="url(#filter0_d_287_32003)">
<rect width="1226.74" height="782.901" fill="white"/>
<rect x="4.12053" y="4.12053" width="1218.5" height="774.66" stroke="black" stroke-width="8.24106"/>
</g>
<rect width="1226.61" height="69.0215" transform="translate(0.199219 0.429932)" fill="black"/>
<path d="M15.9756 34.9407C15.9756 31.1288 19.0658 28.0386 22.8777 28.0386C26.6897 28.0386 29.7799 31.1288 29.7799 34.9407C29.7799 38.7527 26.6897 41.8429 22.8777 41.8429C19.0658 41.8429 15.9756 38.7527 15.9756 34.9407Z" stroke="white" stroke-width="1.97204"/>
<path d="M37.668 34.9407C37.668 31.1288 40.7582 28.0386 44.5701 28.0386C48.3821 28.0386 51.4723 31.1288 51.4723 34.9407C51.4723 38.7527 48.3821 41.8429 44.5701 41.8429C40.7582 41.8429 37.668 38.7527 37.668 34.9407Z" stroke="white" stroke-width="1.97204"/>
<path d="M59.3604 34.9407C59.3604 31.1288 62.4505 28.0386 66.2625 28.0386C70.0745 28.0386 73.1647 31.1288 73.1647 34.9407C73.1647 38.7527 70.0745 41.8429 66.2625 41.8429C62.4505 41.8429 59.3604 38.7527 59.3604 34.9407Z" stroke="white" stroke-width="1.97204"/>
<path d="M530.391 18.3321C533.467 18.3321 535.887 19.0946 537.648 20.6196C539.41 22.1184 540.291 24.2088 540.291 26.8907C540.291 29.0731 539.725 30.8874 538.595 32.3336C537.464 33.7797 535.913 34.5028 533.941 34.5028V34.6606L541.395 45.9407H534.966L528.301 35.5283H521.754V45.9407H515.325V18.3321H530.391ZM529.563 30.1643C531.062 30.1643 532.113 29.9408 532.718 29.4938C533.349 29.0468 533.665 28.2054 533.665 26.9696C533.665 25.7601 533.349 24.945 532.718 24.5243C532.113 24.0773 531.062 23.8538 529.563 23.8538H521.754V30.1643H529.563ZM545.059 18.3321H566.239V24.2088H551.37V28.8628H564.938V34.5423H551.37V40.064H566.239V45.9407H545.059V18.3321ZM585.557 18.3321C588.976 18.3321 591.566 19.1077 593.327 20.6591C595.089 22.1841 595.97 24.406 595.97 27.3246C595.97 30.1643 595.102 32.4125 593.367 34.069C591.631 35.7255 589.028 36.5537 585.557 36.5537H578.103V45.9407H571.674V18.3321H585.557ZM578.103 23.8538V31.032H585.597C586.912 31.032 587.858 30.7428 588.437 30.1643C589.041 29.5859 589.344 28.6393 589.344 27.3246C589.344 26.0625 589.041 25.1685 588.437 24.6426C587.832 24.1167 586.885 23.8538 585.597 23.8538H578.103ZM602.396 21.8029C605.341 19.2261 609.193 17.9377 613.952 17.9377C618.685 17.9377 622.524 19.2261 625.469 21.8029C628.414 24.3797 629.887 27.8505 629.887 32.2153C629.887 36.5537 628.401 39.9983 625.43 42.5488C622.485 45.073 618.659 46.3351 613.952 46.3351C609.193 46.3351 605.328 45.0598 602.357 42.5093C599.412 39.9588 597.939 36.5275 597.939 32.2153C597.939 27.8505 599.425 24.3797 602.396 21.8029ZM606.774 38.723C608.22 39.9062 610.613 40.4978 613.952 40.4978C617.187 40.4978 619.54 39.8405 621.012 38.5258C622.511 37.1848 623.26 35.055 623.26 32.1364C623.26 29.0074 622.524 26.8382 621.052 25.6286C619.606 24.3928 617.239 23.7749 613.952 23.7749C610.639 23.7749 608.247 24.3928 606.774 25.6286C605.328 26.8382 604.605 29.0074 604.605 32.1364C604.605 35.3442 605.328 37.5398 606.774 38.723ZM649.368 18.3321C652.445 18.3321 654.864 19.0946 656.626 20.6196C658.387 22.1184 659.268 24.2088 659.268 26.8907C659.268 29.0731 658.703 30.8874 657.572 32.3336C656.441 33.7797 654.89 34.5028 652.918 34.5028V34.6606L660.372 45.9407H653.944L647.278 35.5283H640.731V45.9407H634.302V18.3321H649.368ZM648.54 30.1643C650.039 30.1643 651.091 29.9408 651.695 29.4938C652.326 29.0468 652.642 28.2054 652.642 26.9696C652.642 25.7601 652.326 24.945 651.695 24.5243C651.091 24.0773 650.039 23.8538 648.54 23.8538H640.731V30.1643H648.54ZM662.305 18.3321H687.508V24.0116H682.104L678.121 23.9327V45.9407H671.692V23.9327L667.59 24.0116H662.305V18.3321ZM696.342 36.0016C696.605 37.7633 697.328 39.0254 698.511 39.7879C699.721 40.5504 701.417 40.9317 703.599 40.9317C705.518 40.9317 706.951 40.7213 707.898 40.3006C708.845 39.8799 709.318 39.2094 709.318 38.2891C709.318 38.2629 709.318 38.2366 709.318 38.2103C709.292 37.3952 708.95 36.8167 708.292 36.4749C707.661 36.133 706.426 35.8044 704.585 35.4888L698.827 34.5028C696.355 34.0821 694.37 33.1618 692.871 31.742C691.372 30.3221 690.597 28.4947 690.544 26.2597C690.544 26.2334 690.544 26.2071 690.544 26.1808C690.544 23.5777 691.648 21.5531 693.857 20.1069C696.092 18.6607 698.892 17.9377 702.258 17.9377C709.91 17.9377 714.09 20.6985 714.8 26.2202L708.884 27.8768C708.726 26.1414 708.122 24.9713 707.07 24.3665C706.044 23.7618 704.454 23.4594 702.297 23.4594C698.774 23.4594 697.012 24.3402 697.012 26.1019C697.039 26.9696 697.394 27.5875 698.077 27.9556C698.787 28.2975 700.115 28.613 702.061 28.9022L707.228 29.691C709.778 30.0854 711.816 30.9531 713.341 32.2941C714.866 33.6351 715.642 35.3311 715.668 37.382C715.668 37.4346 715.668 37.5003 715.668 37.5792C715.668 40.3138 714.537 42.4567 712.276 44.0081C710.041 45.5594 707.136 46.3351 703.56 46.3351C699.694 46.3351 696.592 45.612 694.252 44.1658C691.911 42.6934 690.478 40.511 689.952 37.6187L696.342 36.0016Z" fill="white"/>
<path fill-rule="evenodd" clip-rule="evenodd" d="M1205.12 27.0525H1203.15V42.8288H1205.12V27.0525ZM1200.19 32.9686H1198.22V42.8288H1200.19V32.9686ZM1193.29 36.9127H1195.26V42.8288H1193.29V36.9127Z" fill="white"/>
<defs>
<filter id="filter0_d_287_32003" x="0" y="0" width="1249.11" height="808.802" filterUnits="userSpaceOnUse" color-interpolation-filters="sRGB">
<feFlood flood-opacity="0" result="BackgroundImageFix"/>
<feColorMatrix in="SourceAlpha" type="matrix" values="0 0 0 0 0 0 0 0 0 0 0 0 0 0 0 0 0 0 127 0" result="hardAlpha"/>
<feOffset dx="22.3686" dy="25.9005"/>
<feComposite in2="hardAlpha" operator="out"/>
<feColorMatrix type="matrix" values="0 0 0 0 0 0 0 0 0 0 0 0 0 0 0 0 0 0 1 0"/>
<feBlend mode="normal" in2="BackgroundImageFix" result="effect1_dropShadow_287_32003"/>
<feBlend mode="normal" in="SourceGraphic" in2="effect1_dropShadow_287_32003" result="shape"/>
</filter>
</defs>
</svg>
