<svg width="1116" height="831" viewBox="0 0 1116 831" fill="none" xmlns="http://www.w3.org/2000/svg">
<g filter="url(#filter0_d_287_31985)">
<rect width="1093" height="804.351" fill="white"/>
<rect x="4.22707" y="4.22707" width="1084.55" height="795.897" stroke="black" stroke-width="8.45414"/>
</g>
<rect width="1081" height="46" transform="translate(6 8)" fill="black"/>
<path d="M22 31C22 27.134 25.134 24 29 24C32.866 24 36 27.134 36 31C36 34.866 32.866 38 29 38C25.134 38 22 34.866 22 31Z" stroke="white" stroke-width="2"/>
<path d="M44 31C44 27.134 47.134 24 51 24C54.866 24 58 27.134 58 31C58 34.866 54.866 38 51 38C47.134 38 44 34.866 44 31Z" stroke="white" stroke-width="2"/>
<path d="M66 31C66 27.134 69.134 24 73 24C76.866 24 80 27.134 80 31C80 34.866 76.866 38 73 38C69.134 38 66 34.866 66 31Z" stroke="white" stroke-width="2"/>
<path d="M335.4 35.2H347.112V40H330.152V17.6H335.4V35.2ZM356.973 17.6H364.141L373.261 40H367.853L365.965 35.232H355.149L353.229 40H347.789L356.973 17.6ZM356.877 30.656H364.205L362.125 25.568L360.621 21.6H360.461L358.957 25.568L356.877 30.656ZM379.613 31.936C379.826 33.3653 380.413 34.3893 381.373 35.008C382.354 35.6267 383.73 35.936 385.501 35.936C387.058 35.936 388.221 35.7653 388.989 35.424C389.757 35.0827 390.141 34.5387 390.141 33.792C390.141 33.7707 390.141 33.7493 390.141 33.728C390.119 33.0667 389.842 32.5973 389.309 32.32C388.797 32.0427 387.794 31.776 386.301 31.52L381.629 30.72C379.623 30.3787 378.013 29.632 376.797 28.48C375.581 27.328 374.951 25.8453 374.909 24.032C374.909 24.0107 374.909 23.9893 374.909 23.968C374.909 21.856 375.805 20.2133 377.597 19.04C379.41 17.8667 381.682 17.28 384.413 17.28C390.621 17.28 394.013 19.52 394.589 24L389.789 25.344C389.661 23.936 389.17 22.9867 388.317 22.496C387.485 22.0053 386.194 21.76 384.445 21.76C381.586 21.76 380.157 22.4747 380.157 23.904C380.178 24.608 380.466 25.1093 381.021 25.408C381.597 25.6853 382.674 25.9413 384.253 26.176L388.445 26.816C390.514 27.136 392.167 27.84 393.405 28.928C394.642 30.016 395.271 31.392 395.293 33.056C395.293 33.0987 395.293 33.152 395.293 33.216C395.293 35.4347 394.375 37.1733 392.541 38.432C390.727 39.6907 388.37 40.32 385.469 40.32C382.333 40.32 379.815 39.7333 377.917 38.56C376.018 37.3653 374.855 35.5947 374.429 33.248L379.613 31.936ZM397.185 17.6H417.633V22.208H413.249L410.017 22.144V40H404.801V22.144L401.473 22.208H397.185V17.6ZM438.106 17.6H442.874V40H437.722V23.552L437.498 23.424L431.546 26.144L428.922 21.536L438.106 17.6ZM449.374 19.968C451.188 18.0907 453.684 17.152 456.862 17.152C460.062 17.152 462.569 18.0907 464.382 19.968C466.196 21.8453 467.102 24.8107 467.102 28.864C467.102 32.7893 466.174 35.712 464.318 37.632C462.484 39.5307 459.998 40.48 456.862 40.48C453.684 40.48 451.177 39.5413 449.342 37.664C447.529 35.7653 446.622 32.832 446.622 28.864C446.622 24.832 447.54 21.8667 449.374 19.968ZM451.838 28.8C451.838 31.4027 452.222 33.2267 452.99 34.272C453.737 35.3173 455.028 35.84 456.862 35.84C458.697 35.84 459.988 35.3173 460.734 34.272C461.481 33.2053 461.854 31.3813 461.854 28.8C461.854 26.176 461.47 24.352 460.702 23.328C459.956 22.304 458.676 21.792 456.862 21.792C455.028 21.792 453.726 22.3147 452.958 23.36C452.212 24.4053 451.838 26.2187 451.838 28.8ZM478.904 17.6H499.352V22.208H494.968L491.736 22.144V40H486.52V22.144L483.192 22.208H478.904V17.6ZM515.283 17.6C517.779 17.6 519.741 18.2187 521.171 19.456C522.6 20.672 523.315 22.368 523.315 24.544C523.315 26.3147 522.856 27.7867 521.939 28.96C521.021 30.1333 519.763 30.72 518.163 30.72V30.848L524.211 40H518.995L513.587 31.552H508.275V40H503.059V17.6H515.283ZM514.611 27.2C515.827 27.2 516.68 27.0187 517.171 26.656C517.683 26.2933 517.939 25.6107 517.939 24.608C517.939 23.6267 517.683 22.9653 517.171 22.624C516.68 22.2613 515.827 22.08 514.611 22.08H508.275V27.2H514.611ZM534.192 17.6H541.36L550.48 40H545.072L543.184 35.232H532.368L530.448 40H525.008L534.192 17.6ZM534.095 30.656H541.424L539.344 25.568L537.84 21.6H537.68L536.176 25.568L534.095 30.656ZM560.253 17.6L569.181 30.048L571.293 33.056H571.421L571.389 30.112V17.6H576.573V40H569.917L560.733 27.072L558.589 24H558.461L558.493 27.072V40H553.309V17.6H560.253ZM585.207 31.936C585.42 33.3653 586.007 34.3893 586.967 35.008C587.948 35.6267 589.324 35.936 591.095 35.936C592.652 35.936 593.815 35.7653 594.583 35.424C595.351 35.0827 595.735 34.5387 595.735 33.792C595.735 33.7707 595.735 33.7493 595.735 33.728C595.713 33.0667 595.436 32.5973 594.903 32.32C594.391 32.0427 593.388 31.776 591.895 31.52L587.223 30.72C585.217 30.3787 583.607 29.632 582.391 28.48C581.175 27.328 580.545 25.8453 580.503 24.032C580.503 24.0107 580.503 23.9893 580.503 23.968C580.503 21.856 581.399 20.2133 583.191 19.04C585.004 17.8667 587.276 17.28 590.007 17.28C596.215 17.28 599.607 19.52 600.183 24L595.383 25.344C595.255 23.936 594.764 22.9867 593.911 22.496C593.079 22.0053 591.788 21.76 590.039 21.76C587.18 21.76 585.751 22.4747 585.751 23.904C585.772 24.608 586.06 25.1093 586.615 25.408C587.191 25.6853 588.268 25.9413 589.847 26.176L594.039 26.816C596.108 27.136 597.761 27.84 598.999 28.928C600.236 30.016 600.865 31.392 600.887 33.056C600.887 33.0987 600.887 33.152 600.887 33.216C600.887 35.4347 599.969 37.1733 598.135 38.432C596.321 39.6907 593.964 40.32 591.063 40.32C587.927 40.32 585.409 39.7333 583.511 38.56C581.612 37.3653 580.449 35.5947 580.023 33.248L585.207 31.936ZM611.254 17.6H618.422L627.542 40H622.134L620.246 35.232H609.43L607.51 40H602.07L611.254 17.6ZM611.158 30.656H618.486L616.406 25.568L614.902 21.6H614.742L613.238 25.568L611.158 30.656ZM632.294 20.384C634.619 18.3147 637.809 17.28 641.862 17.28C645.211 17.28 647.899 18.08 649.926 19.68C651.974 21.2587 653.233 23.6053 653.702 26.72L648.486 27.712L648.422 27.68C648.059 25.4187 647.462 23.9147 646.63 23.168C645.798 22.4 644.209 22.016 641.862 22.016C639.003 22.016 637.009 22.5067 635.878 23.488C634.769 24.4693 634.214 26.24 634.214 28.8C634.214 31.3813 634.779 33.1627 635.91 34.144C637.041 35.104 639.025 35.584 641.862 35.584C644.209 35.584 645.798 35.2 646.63 34.432C647.483 33.6427 648.081 32.128 648.422 29.888L648.486 29.856L653.702 30.848C653.233 33.984 651.974 36.352 649.926 37.952C647.899 39.5307 645.211 40.32 641.862 40.32C637.979 40.32 634.833 39.2853 632.422 37.216C630.011 35.1467 628.806 32.3627 628.806 28.864C628.806 25.28 629.969 22.4533 632.294 20.384ZM656.31 17.6H676.758V22.208H672.374L669.142 22.144V40H663.926V22.144L660.598 22.208H656.31V17.6ZM680.465 40V17.6H685.809V40H680.465ZM693.016 20.416C695.405 18.3253 698.53 17.28 702.392 17.28C706.232 17.28 709.346 18.3253 711.736 20.416C714.125 22.5067 715.32 25.3227 715.32 28.864C715.32 32.384 714.114 35.1787 711.704 37.248C709.314 39.296 706.21 40.32 702.392 40.32C698.53 40.32 695.394 39.2853 692.984 37.216C690.594 35.1467 689.4 32.3627 689.4 28.864C689.4 25.3227 690.605 22.5067 693.016 20.416ZM696.568 34.144C697.741 35.104 699.682 35.584 702.392 35.584C705.016 35.584 706.925 35.0507 708.12 33.984C709.336 32.896 709.944 31.168 709.944 28.8C709.944 26.2613 709.346 24.5013 708.152 23.52C706.978 22.5173 705.058 22.016 702.392 22.016C699.704 22.016 697.762 22.5173 696.568 23.52C695.394 24.5013 694.808 26.2613 694.808 28.8C694.808 31.4027 695.394 33.184 696.568 34.144ZM725.846 17.6L734.774 30.048L736.886 33.056H737.014L736.982 30.112V17.6H742.166V40H735.51L726.326 27.072L724.182 24H724.054L724.086 27.072V40H718.902V17.6H725.846ZM750.8 31.936C751.014 33.3653 751.6 34.3893 752.56 35.008C753.542 35.6267 754.918 35.936 756.688 35.936C758.246 35.936 759.408 35.7653 760.176 35.424C760.944 35.0827 761.328 34.5387 761.328 33.792C761.328 33.7707 761.328 33.7493 761.328 33.728C761.307 33.0667 761.03 32.5973 760.496 32.32C759.984 32.0427 758.982 31.776 757.488 31.52L752.816 30.72C750.811 30.3787 749.2 29.632 747.984 28.48C746.768 27.328 746.139 25.8453 746.096 24.032C746.096 24.0107 746.096 23.9893 746.096 23.968C746.096 21.856 746.992 20.2133 748.784 19.04C750.598 17.8667 752.87 17.28 755.6 17.28C761.808 17.28 765.2 19.52 765.776 24L760.976 25.344C760.848 23.936 760.358 22.9867 759.504 22.496C758.672 22.0053 757.382 21.76 755.632 21.76C752.774 21.76 751.344 22.4747 751.344 23.904C751.366 24.608 751.654 25.1093 752.208 25.408C752.784 25.6853 753.862 25.9413 755.44 26.176L759.632 26.816C761.702 27.136 763.355 27.84 764.592 28.928C765.83 30.016 766.459 31.392 766.48 33.056C766.48 33.0987 766.48 33.152 766.48 33.216C766.48 35.4347 765.563 37.1733 763.728 38.432C761.915 39.6907 759.558 40.32 756.656 40.32C753.52 40.32 751.003 39.7333 749.104 38.56C747.206 37.3653 746.043 35.5947 745.616 33.248L750.8 31.936Z" fill="white"/>
<path fill-rule="evenodd" clip-rule="evenodd" d="M1065 23H1063V39H1065V23ZM1060 29H1058V39H1060V29ZM1053 33H1055V39H1053V33Z" fill="white"/>
<path d="M552.5 50L552.5 804.008" stroke="black" stroke-width="13"/>
<rect x="6" y="54" width="541" height="87" fill="#98FE87"/>
<path d="M127.867 122V115.728H137.915V83.6H127.867V77.328H156.283V83.6H146.235V115.728H156.283V122H127.867ZM173.346 89.936H172.706V122H165.538V77.328H175.842L187.554 109.392H188.194V77.328H195.362V122H185.058L173.346 89.936ZM219.977 122.768C214.132 122.768 209.801 120.763 206.985 116.752C204.212 112.741 202.825 107.045 202.825 99.664C202.825 92.3253 204.212 86.6507 206.985 82.64C209.801 78.5867 214.132 76.56 219.977 76.56C222.196 76.56 224.137 76.8587 225.801 77.456C227.508 78.0533 228.98 78.8853 230.217 79.952C231.454 80.976 232.478 82.2347 233.289 83.728C234.1 85.1787 234.74 86.7787 235.209 88.528L227.529 90.704C227.23 89.68 226.889 88.72 226.505 87.824C226.121 86.928 225.63 86.16 225.033 85.52C224.478 84.8373 223.774 84.3253 222.921 83.984C222.068 83.6 221.044 83.408 219.849 83.408C216.948 83.408 214.857 84.5173 213.577 86.736C212.34 88.9547 211.721 91.984 211.721 95.824V103.504C211.721 107.344 212.34 110.373 213.577 112.592C214.857 114.811 216.948 115.92 219.849 115.92C221.044 115.92 222.068 115.749 222.921 115.408C223.774 115.024 224.478 114.512 225.033 113.872C225.63 113.189 226.121 112.4 226.505 111.504C226.889 110.608 227.23 109.648 227.529 108.624L235.209 110.8C234.74 112.549 234.1 114.171 233.289 115.664C232.478 117.115 231.454 118.373 230.217 119.44C228.98 120.464 227.508 121.275 225.801 121.872C224.137 122.469 222.196 122.768 219.977 122.768ZM257.2 122.768C254.299 122.768 251.781 122.256 249.648 121.232C247.515 120.165 245.744 118.651 244.336 116.688C242.971 114.725 241.947 112.315 241.264 109.456C240.624 106.597 240.304 103.333 240.304 99.664C240.304 96.0373 240.624 92.7947 241.264 89.936C241.947 87.0347 242.971 84.6027 244.336 82.64C245.744 80.6773 247.515 79.184 249.648 78.16C251.781 77.0933 254.299 76.56 257.2 76.56C263.003 76.56 267.269 78.5867 270 82.64C272.731 86.6933 274.096 92.368 274.096 99.664C274.096 106.96 272.731 112.635 270 116.688C267.269 120.741 263.003 122.768 257.2 122.768ZM257.2 115.92C258.693 115.92 259.952 115.643 260.976 115.088C262 114.491 262.811 113.659 263.408 112.592C264.048 111.525 264.496 110.224 264.752 108.688C265.051 107.109 265.2 105.36 265.2 103.44V95.824C265.2 91.984 264.603 88.9547 263.408 86.736C262.256 84.5173 260.187 83.408 257.2 83.408C254.213 83.408 252.123 84.5173 250.928 86.736C249.776 88.9547 249.2 91.984 249.2 95.824V103.504C249.2 107.344 249.776 110.373 250.928 112.592C252.123 114.811 254.213 115.92 257.2 115.92ZM304.407 101.328L304.791 88.4H304.215L295.575 111.376L286.935 88.4H286.359L286.743 101.328V122H279.447V77.328H289.431L295.639 93.776H296.087L302.359 77.328H311.703V122H304.407V101.328ZM320.062 122V77.328H348.286V84.24H328.446V95.888H347.582V102.8H328.446V115.088H348.286V122H320.062Z" fill="black"/>
<rect x="557" y="54" width="530" height="87" fill="#FE8787"/>
<path d="M670 122V77.328H698.224V84.24H678.384V95.888H697.52V102.8H678.384V115.088H698.224V122H670ZM740.567 122H731.095L726.231 113.104L722.327 105.296H721.815L717.783 113.104L712.791 122H703.959L717.079 98.96L704.791 77.328H714.327L718.423 84.88L722.327 92.624H722.775L726.743 84.88L731.031 77.328H739.863L727.511 99.088L740.567 122ZM746.558 122V77.328H763.518C767.87 77.328 771.198 78.5653 773.502 81.04C775.806 83.5147 776.958 86.8853 776.958 91.152C776.958 95.4187 775.806 98.7893 773.502 101.264C771.198 103.739 767.87 104.976 763.518 104.976H754.942V122H746.558ZM754.942 98.128H761.79C764.051 98.128 765.672 97.68 766.654 96.784C767.635 95.8453 768.126 94.3733 768.126 92.368V89.936C768.126 87.9307 767.635 86.48 766.654 85.584C765.672 84.6453 764.051 84.176 761.79 84.176H754.942V98.128ZM785.125 122V77.328H813.349V84.24H793.509V95.888H812.645V102.8H793.509V115.088H813.349V122H785.125ZM830.284 89.936H829.644V122H822.476V77.328H832.78L844.492 109.392H845.132V77.328H852.3V122H841.996L830.284 89.936ZM875.251 122.768C871.411 122.768 868.125 122.107 865.395 120.784C862.707 119.461 860.509 117.712 858.803 115.536L863.859 110.288C865.523 112.208 867.315 113.637 869.235 114.576C871.197 115.472 873.288 115.92 875.507 115.92C878.067 115.92 880.029 115.344 881.395 114.192C882.76 113.04 883.443 111.376 883.443 109.2C883.443 107.408 882.931 106.064 881.907 105.168C880.883 104.229 879.155 103.568 876.723 103.184L871.987 102.416C867.848 101.691 864.904 100.197 863.155 97.936C861.405 95.632 860.531 92.9227 860.531 89.808C860.531 85.5413 861.917 82.2773 864.691 80.016C867.464 77.712 871.304 76.56 876.211 76.56C879.709 76.56 882.717 77.1147 885.235 78.224C887.795 79.3333 889.843 80.848 891.379 82.768L886.451 88.016C885.256 86.608 883.827 85.4987 882.163 84.688C880.499 83.8347 878.536 83.408 876.275 83.408C871.411 83.408 868.979 85.4133 868.979 89.424C868.979 91.1307 869.491 92.432 870.515 93.328C871.539 94.224 873.288 94.8853 875.763 95.312L880.435 96.144C884.317 96.8693 887.197 98.2987 889.075 100.432C890.952 102.565 891.891 105.296 891.891 108.624C891.891 110.715 891.528 112.635 890.803 114.384C890.077 116.091 889.011 117.584 887.603 118.864C886.195 120.101 884.445 121.061 882.355 121.744C880.307 122.427 877.939 122.768 875.251 122.768ZM900.25 122V77.328H928.474V84.24H908.634V95.888H927.77V102.8H908.634V115.088H928.474V122H900.25Z" fill="black"/>
<defs>
<filter id="filter0_d_287_31985" x="0" y="0" width="1115.95" height="830.921" filterUnits="userSpaceOnUse" color-interpolation-filters="sRGB">
<feFlood flood-opacity="0" result="BackgroundImageFix"/>
<feColorMatrix in="SourceAlpha" type="matrix" values="0 0 0 0 0 0 0 0 0 0 0 0 0 0 0 0 0 0 127 0" result="hardAlpha"/>
<feOffset dx="22.947" dy="26.5702"/>
<feComposite in2="hardAlpha" operator="out"/>
<feColorMatrix type="matrix" values="0 0 0 0 0 0 0 0 0 0 0 0 0 0 0 0 0 0 1 0"/>
<feBlend mode="normal" in2="BackgroundImageFix" result="effect1_dropShadow_287_31985"/>
<feBlend mode="normal" in="SourceGraphic" in2="effect1_dropShadow_287_31985" result="shape"/>
</filter>
</defs>
</svg>
