<svg width="743" height="479" viewBox="0 0 743 479" fill="none" xmlns="http://www.w3.org/2000/svg">
<g filter="url(#filter0_d_213_32529)">
<rect x="10" y="10" width="706.351" height="446.752" fill="#FF5C5C" shape-rendering="crispEdges"/>
<rect width="706.351" height="55.5422" transform="translate(10 10)" fill="black"/>
<path d="M29.3188 37.7711C29.3188 33.1031 33.103 29.319 37.7709 29.319C42.4389 29.319 46.223 33.1031 46.223 37.7711C46.223 42.439 42.4389 46.2231 37.7709 46.2231C33.103 46.2231 29.3188 42.439 29.3188 37.7711Z" stroke="white" stroke-width="2.41488"/>
<path d="M55.8828 37.7711C55.8828 33.1031 59.6669 29.319 64.3349 29.319C69.0028 29.319 72.7869 33.1031 72.7869 37.7711C72.7869 42.439 69.0028 46.2231 64.3349 46.2231C59.6669 46.2231 55.8828 42.439 55.8828 37.7711Z" stroke="white" stroke-width="2.41488"/>
<path d="M82.4463 37.7711C82.4463 33.1031 86.2304 29.319 90.8984 29.319C95.5663 29.319 99.3504 33.1031 99.3504 37.7711C99.3504 42.439 95.5663 46.2231 90.8984 46.2231C86.2304 46.2231 82.4463 42.439 82.4463 37.7711Z" stroke="white" stroke-width="2.41488"/>
<path d="M308.61 48.2711H306.176V28.0441H313.537C315.411 28.0441 316.84 28.556 317.825 29.5799C318.811 30.6039 319.303 32.0335 319.303 33.8688C319.303 35.5109 318.878 36.8246 318.028 37.8098C317.178 38.7951 315.942 39.365 314.319 39.5196L319.477 48.2711H316.753L311.827 39.6355H308.61V48.2711ZM313.479 37.578C314.503 37.578 315.295 37.3269 315.855 36.8246C316.434 36.303 316.724 35.5688 316.724 34.6222V33.1153C316.724 32.1687 316.434 31.4442 315.855 30.9419C315.295 30.4203 314.503 30.1595 313.479 30.1595H308.61V37.578H313.479ZM323.552 48.2711V28.0441H336.013V30.1595H325.986V36.9695H335.665V39.0849H325.986V46.1557H336.013V48.2711H323.552ZM351.505 38.1286V31.7244H351.273L347.013 42.1276L342.753 31.7244H342.521V38.1286V48.2711H340.29V28.0441H343.42L346.984 36.9695H347.158L350.722 28.0441H353.736V48.2711H351.505V38.1286ZM358.13 48.2711V46.3295H363.172V29.9856H358.13V28.0441H370.648V29.9856H365.606V46.3295H370.648V48.2711H358.13ZM377.795 31.1448H377.592V48.2711H375.389V28.0441H378.838L385.735 44.9965H385.938V28.0441H388.14V48.2711H384.692L377.795 31.1448ZM393.2 28.0441H398.851C401.324 28.0441 403.169 28.8941 404.386 30.5942C405.603 32.2943 406.211 34.8154 406.211 38.1576C406.211 41.4998 405.603 44.0209 404.386 45.721C403.169 47.4211 401.324 48.2711 398.851 48.2711H393.2V28.0441ZM398.735 46.1557C400.358 46.1557 401.575 45.5954 402.386 44.4749C403.217 43.3544 403.632 41.7702 403.632 39.7224V36.5927C403.632 34.5449 403.217 32.9608 402.386 31.8403C401.575 30.7198 400.358 30.1595 398.735 30.1595H395.634V46.1557H398.735ZM410.431 48.2711V28.0441H422.892V30.1595H412.865V36.9695H422.544V39.0849H412.865V46.1557H422.892V48.2711H410.431ZM430.241 48.2711H427.807V28.0441H435.167C437.041 28.0441 438.471 28.556 439.456 29.5799C440.441 30.6039 440.934 32.0335 440.934 33.8688C440.934 35.5109 440.509 36.8246 439.659 37.8098C438.809 38.7951 437.572 39.365 435.95 39.5196L441.108 48.2711H438.384L433.457 39.6355H430.241V48.2711ZM435.109 37.578C436.133 37.578 436.925 37.3269 437.485 36.8246C438.065 36.303 438.355 35.5688 438.355 34.6222V33.1153C438.355 32.1687 438.065 31.4442 437.485 30.9419C436.925 30.4203 436.133 30.1595 435.109 30.1595H430.241V37.578H435.109Z" fill="white"/>
<path d="M668.054 37.7711C668.054 29.7689 674.541 23.2818 682.543 23.2818C690.545 23.2818 697.032 29.7689 697.032 37.7711C697.032 45.7733 690.545 52.2603 682.543 52.2603C674.541 52.2603 668.054 45.7733 668.054 37.7711Z" stroke="#00FFA3" stroke-width="4.18746"/>
<path d="M90.5813 132.577C97.227 132.577 102.385 134.413 106.056 138.083C109.765 141.715 111.62 146.641 111.62 152.862C111.62 159.122 109.765 164.067 106.056 167.699C102.347 171.331 97.1884 173.147 90.5813 173.147H69.1951V132.577H90.5813ZM78.6421 141.213V164.454H90.3494C94.7155 164.454 97.7293 163.623 99.3907 161.961C101.091 160.261 101.941 157.228 101.941 152.862C101.941 148.496 101.091 145.463 99.3907 143.763C97.7293 142.063 94.7155 141.213 90.3494 141.213H78.6421ZM120.299 147.53C123.544 144.825 127.679 143.473 132.702 143.473C137.84 143.473 142.013 144.825 145.22 147.53C148.427 150.196 150.031 153.905 150.031 158.658C150.031 163.41 148.408 167.12 145.162 169.786C141.917 172.413 137.763 173.727 132.702 173.727C127.601 173.727 123.428 172.394 120.183 169.728C116.976 167.062 115.372 163.372 115.372 158.658C115.372 153.944 117.014 150.235 120.299 147.53ZM126.5 163.932C127.852 164.975 129.92 165.497 132.702 165.497C135.522 165.497 137.609 164.975 138.961 163.932C140.313 162.889 140.989 161.131 140.989 158.658C140.989 156.185 140.371 154.408 139.135 153.326C137.898 152.244 135.754 151.703 132.702 151.703C129.726 151.703 127.601 152.263 126.326 153.384C125.051 154.466 124.414 156.224 124.414 158.658C124.414 161.169 125.109 162.927 126.5 163.932ZM172.525 144.053H180.234L181.509 150.718H181.682C183.692 145.888 187.227 143.473 192.289 143.473C200.093 143.473 203.996 147.685 203.996 156.108V173.147H194.955V158.542C194.955 155.992 194.491 154.214 193.564 153.21C192.636 152.205 191.072 151.703 188.869 151.703C183.962 151.703 181.509 154.137 181.509 159.006V173.147H172.525V144.053ZM214.139 147.53C217.385 144.825 221.519 143.473 226.542 143.473C231.681 143.473 235.854 144.825 239.061 147.53C242.268 150.196 243.871 153.905 243.871 158.658C243.871 163.41 242.248 167.12 239.003 169.786C235.757 172.413 231.604 173.727 226.542 173.727C221.442 173.727 217.269 172.394 214.023 169.728C210.816 167.062 209.213 163.372 209.213 158.658C209.213 153.944 210.855 150.235 214.139 147.53ZM220.341 163.932C221.693 164.975 223.76 165.497 226.542 165.497C229.363 165.497 231.449 164.975 232.801 163.932C234.154 162.889 234.83 161.131 234.83 158.658C234.83 156.185 234.212 154.408 232.975 153.326C231.739 152.244 229.595 151.703 226.542 151.703C223.567 151.703 221.442 152.263 220.167 153.384C218.892 154.466 218.254 156.224 218.254 158.658C218.254 161.169 218.95 162.927 220.341 163.932ZM250.142 144.053L253.214 144.111L255.301 135.649H262.255V144.111L266.197 144.053H271.644V151.993H266.197L262.255 151.935V164.975L262.487 165.265H271.065V173.147H263.183C259.937 173.147 257.464 172.278 255.764 170.539C254.064 168.8 253.214 166.347 253.214 163.179V151.935L250.142 151.993H246.665V144.053H250.142ZM300.527 163.294C301.3 165.883 303.579 167.178 307.366 167.178C310.727 167.178 312.408 166.385 312.408 164.801C312.37 163.372 310.727 162.425 307.482 161.961L302.034 161.266C299.059 160.918 296.76 159.972 295.137 158.426C293.514 156.842 292.664 154.813 292.587 152.341C292.587 152.302 292.587 152.263 292.587 152.225C292.587 149.404 293.707 147.24 295.948 145.733C298.189 144.227 301.474 143.473 305.801 143.473C314.186 143.473 319.17 146.332 320.754 152.051L312.466 153.847C311.964 150.988 309.858 149.559 306.149 149.559C303.096 149.559 301.57 150.37 301.57 151.993C301.57 153.5 303 154.388 305.859 154.659L312.234 155.296C315.055 155.567 317.277 156.494 318.899 158.078C320.522 159.624 321.372 161.594 321.449 163.99C321.449 164.029 321.449 164.067 321.449 164.106C321.449 167.236 320.213 169.631 317.74 171.293C315.267 172.915 311.655 173.727 306.902 173.727C303.348 173.727 300.121 172.973 297.223 171.466C294.364 169.921 292.664 167.873 292.123 165.323L300.527 163.294ZM324.451 165.787C324.451 163.816 324.953 162.271 325.957 161.15C326.962 159.991 328.797 158.986 331.463 158.136C334.168 157.286 338.244 156.455 343.692 155.644L346.59 155.18L346.532 154.079C346.378 152.688 345.837 151.742 344.909 151.239C343.982 150.737 342.495 150.486 340.447 150.486C336.158 150.486 333.936 152.051 333.782 155.18L326.363 153.326C326.518 150.196 327.947 147.781 330.652 146.081C333.395 144.342 336.699 143.473 340.563 143.473C344.967 143.473 348.522 144.439 351.227 146.371C353.931 148.264 355.284 150.988 355.284 154.543V173.147H347.575L346.532 167.12H346.358C344.62 171.524 340.949 173.727 335.346 173.727C332.062 173.727 329.416 173.012 327.406 171.582C325.436 170.114 324.451 168.182 324.451 165.787ZM338.36 167.525C340.563 167.525 342.456 166.733 344.04 165.149C345.663 163.565 346.513 161.807 346.59 159.875L344.098 160.281C340.311 160.976 337.568 161.652 335.868 162.309C334.207 162.927 333.376 163.777 333.376 164.859C333.376 166.637 335.037 167.525 338.36 167.525ZM367.106 144.053L374.235 164.338L381.363 144.053H391.564L379.393 173.147H369.077L356.906 144.053H367.106ZM396.426 147.472C399.208 144.806 402.994 143.473 407.786 143.473C413.311 143.473 417.233 144.883 419.551 147.704C421.869 150.525 423.028 154.041 423.028 158.252C423.028 158.909 423.009 159.585 422.97 160.281H400.773C401.082 164.222 403.439 166.192 407.844 166.192C411.475 166.192 413.736 164.743 414.624 161.846L421.985 164.627C421.676 165.709 421.212 166.733 420.594 167.699C419.976 168.665 419.126 169.631 418.044 170.597C417.001 171.524 415.61 172.278 413.871 172.857C412.132 173.437 410.181 173.727 408.017 173.727C403.11 173.727 399.247 172.394 396.426 169.728C393.605 167.062 392.195 163.372 392.195 158.658C392.195 153.867 393.605 150.138 396.426 147.472ZM400.715 155.586H414.624C414.277 152.302 412.016 150.66 407.844 150.66C403.632 150.66 401.256 152.302 400.715 155.586ZM443.108 144.053H452.729L457.655 164.048L464.32 144.053H473.072L479.795 164.28L484.779 144.053H494.168L485.011 173.147H475.622L468.725 154.369L461.712 173.147H452.439L443.108 144.053ZM507.517 132.577V150.718H507.691C508.348 148.399 509.584 146.622 511.4 145.386C513.216 144.111 515.515 143.473 518.297 143.473C526.102 143.473 530.004 147.685 530.004 156.108V173.147H520.963V158.542C520.963 155.992 520.499 154.214 519.572 153.21C518.645 152.205 517.08 151.703 514.877 151.703C509.97 151.703 507.517 154.137 507.517 159.006V173.147H498.534V132.577H507.517ZM535.167 165.787C535.167 163.816 535.67 162.271 536.674 161.15C537.679 159.991 539.514 158.986 542.18 158.136C544.885 157.286 548.961 156.455 554.409 155.644L557.307 155.18L557.249 154.079C557.094 152.688 556.554 151.742 555.626 151.239C554.699 150.737 553.211 150.486 551.164 150.486C546.875 150.486 544.653 152.051 544.498 155.18L537.08 153.326C537.235 150.196 538.664 147.781 541.369 146.081C544.112 144.342 547.416 143.473 551.279 143.473C555.684 143.473 559.239 144.439 561.944 146.371C564.648 148.264 566.001 150.988 566.001 154.543V173.147H558.292L557.249 167.12H557.075C555.336 171.524 551.666 173.727 546.063 173.727C542.779 173.727 540.132 173.012 538.123 171.582C536.153 170.114 535.167 168.182 535.167 165.787ZM549.077 167.525C551.279 167.525 553.173 166.733 554.757 165.149C556.38 163.565 557.23 161.807 557.307 159.875L554.815 160.281C551.028 160.976 548.285 161.652 546.585 162.309C544.923 162.927 544.093 163.777 544.093 164.859C544.093 166.637 545.754 167.525 549.077 167.525ZM572.755 144.053L575.826 144.111L577.913 135.649H584.868V144.111L588.809 144.053H594.257V151.993H588.809L584.868 151.935V164.975L585.1 165.265H593.677V173.147H585.795C582.549 173.147 580.077 172.278 578.377 170.539C576.677 168.8 575.826 166.347 575.826 163.179V151.935L572.755 151.993H569.277V144.053H572.755ZM616.764 133.157H626.095V140.517H616.764V133.157ZM616.938 173.147V144.053H625.921V173.147H616.938ZM639.496 163.294C640.269 165.883 642.549 167.178 646.335 167.178C649.697 167.178 651.378 166.385 651.378 164.801C651.339 163.372 649.697 162.425 646.451 161.961L641.003 161.266C638.028 160.918 635.729 159.972 634.106 158.426C632.484 156.842 631.634 154.813 631.556 152.341C631.556 152.302 631.556 152.263 631.556 152.225C631.556 149.404 632.677 147.24 634.918 145.733C637.159 144.227 640.443 143.473 644.77 143.473C653.155 143.473 658.139 146.332 659.723 152.051L651.435 153.847C650.933 150.988 648.827 149.559 645.118 149.559C642.066 149.559 640.54 150.37 640.54 151.993C640.54 153.5 641.969 154.388 644.828 154.659L651.204 155.296C654.024 155.567 656.246 156.494 657.869 158.078C659.492 159.624 660.342 161.594 660.419 163.99C660.419 164.029 660.419 164.067 660.419 164.106C660.419 167.236 659.182 169.631 656.71 171.293C654.237 172.915 650.624 173.727 645.872 173.727C642.317 173.727 639.091 172.973 636.193 171.466C633.334 169.921 631.634 167.873 631.093 165.323L639.496 163.294ZM76.4207 202.577H85.404V235.091L85.5779 235.265H90.6781V243.147H85.52C82.5448 242.993 80.2845 242.065 78.739 240.365C77.1935 238.626 76.4207 236.231 76.4207 233.179V202.577ZM97.4718 217.472C100.254 214.806 104.04 213.473 108.831 213.473C114.357 213.473 118.278 214.883 120.597 217.704C122.915 220.525 124.074 224.041 124.074 228.252C124.074 228.909 124.055 229.585 124.016 230.281H101.819C102.128 234.222 104.485 236.192 108.889 236.192C112.521 236.192 114.782 234.743 115.67 231.846L123.031 234.627C122.722 235.709 122.258 236.733 121.64 237.699C121.022 238.665 120.172 239.631 119.09 240.597C118.047 241.524 116.656 242.278 114.917 242.857C113.178 243.437 111.227 243.727 109.063 243.727C104.156 243.727 100.292 242.394 97.4718 239.728C94.6512 237.062 93.2409 233.372 93.2409 228.658C93.2409 223.867 94.6512 220.138 97.4718 217.472ZM101.761 225.586H115.67C115.323 222.302 113.062 220.66 108.889 220.66C104.678 220.66 102.302 222.302 101.761 225.586ZM131.063 214.053L134.366 214.111V209.996C134.366 206.982 135.255 204.567 137.032 202.751C138.848 200.935 141.263 200.027 144.277 200.027H152.971V207.967L143.524 207.909L143.408 208.083V214.111L147.291 214.053H152.913V221.993H147.291L143.408 221.935V243.147H134.366V221.935L131.063 221.993H126.89V214.053H131.063ZM157.83 214.053L160.902 214.111L162.988 205.649H169.943V214.111L173.884 214.053H179.332V221.993H173.884L169.943 221.935V234.975L170.175 235.265H178.752V243.147H170.87C167.625 243.147 165.152 242.278 163.452 240.539C161.752 238.8 160.902 236.347 160.902 233.179V221.935L157.83 221.993H154.353V214.053H157.83ZM200.216 235.787C200.216 233.816 200.719 232.271 201.723 231.15C202.728 229.991 204.563 228.986 207.229 228.136C209.934 227.286 214.01 226.455 219.458 225.644L222.356 225.18L222.298 224.079C222.144 222.688 221.603 221.742 220.675 221.239C219.748 220.737 218.26 220.486 216.213 220.486C211.924 220.486 209.702 222.051 209.548 225.18L202.129 223.326C202.284 220.196 203.713 217.781 206.418 216.081C209.161 214.342 212.465 213.473 216.329 213.473C220.733 213.473 224.288 214.439 226.993 216.371C229.697 218.264 231.05 220.988 231.05 224.543V243.147H223.341L222.298 237.12H222.124C220.386 241.524 216.715 243.727 211.112 243.727C207.828 243.727 205.181 243.012 203.172 241.582C201.202 240.114 200.216 238.182 200.216 235.787ZM214.126 237.525C216.329 237.525 218.222 236.733 219.806 235.149C221.429 233.565 222.279 231.807 222.356 229.875L219.864 230.281C216.077 230.976 213.334 231.652 211.634 232.309C209.973 232.927 209.142 233.777 209.142 234.859C209.142 236.637 210.803 237.525 214.126 237.525ZM238.77 214.053L242.074 214.111V209.996C242.074 206.982 242.962 204.567 244.74 202.751C246.556 200.935 248.971 200.027 251.984 200.027H260.678V207.967L251.231 207.909L251.115 208.083V214.111L254.998 214.053H260.62V221.993H254.998L251.115 221.935V243.147H242.074V221.935L238.77 221.993H234.597V214.053H238.77ZM265.537 214.053L268.609 214.111L270.695 205.649H277.65V214.111L281.591 214.053H287.039V221.993H281.591L277.65 221.935V234.975L277.882 235.265H286.46V243.147H278.578C275.332 243.147 272.859 242.278 271.159 240.539C269.459 238.8 268.609 236.347 268.609 233.179V221.935L265.537 221.993H262.06V214.053H265.537ZM294.945 217.472C297.726 214.806 301.513 213.473 306.304 213.473C311.829 213.473 315.751 214.883 318.069 217.704C320.388 220.525 321.547 224.041 321.547 228.252C321.547 228.909 321.527 229.585 321.489 230.281H299.291C299.6 234.222 301.957 236.192 306.362 236.192C309.994 236.192 312.254 234.743 313.143 231.846L320.504 234.627C320.194 235.709 319.731 236.733 319.113 237.699C318.494 238.665 317.644 239.631 316.562 240.597C315.519 241.524 314.128 242.278 312.39 242.857C310.651 243.437 308.7 243.727 306.536 243.727C301.629 243.727 297.765 242.394 294.945 239.728C292.124 237.062 290.714 233.372 290.714 228.658C290.714 223.867 292.124 220.138 294.945 217.472ZM299.233 225.586H313.143C312.795 222.302 310.535 220.66 306.362 220.66C302.151 220.66 299.774 222.302 299.233 225.586ZM334.352 214.053L335.627 221.993H335.743C336.168 220.177 336.786 218.709 337.597 217.588C338.409 216.468 339.491 215.656 340.843 215.154C342.195 214.652 343.432 214.342 344.552 214.227C345.673 214.111 346.832 214.053 348.03 214.053C348.725 214.053 349.459 214.072 350.232 214.111L349.073 222.399C348.88 222.399 348.667 222.399 348.435 222.399C346.697 222.399 345.093 222.553 343.625 222.862C342.157 223.171 340.785 223.732 339.51 224.543C338.273 225.354 337.307 226.552 336.612 228.136C335.955 229.682 335.627 231.575 335.627 233.816V243.147H326.643V214.053H334.352ZM378.067 233.294C378.84 235.883 381.12 237.178 384.906 237.178C388.268 237.178 389.948 236.385 389.948 234.801C389.91 233.372 388.268 232.425 385.022 231.961L379.574 231.266C376.599 230.918 374.3 229.972 372.677 228.426C371.054 226.842 370.204 224.813 370.127 222.341C370.127 222.302 370.127 222.263 370.127 222.225C370.127 219.404 371.248 217.24 373.489 215.733C375.73 214.227 379.014 213.473 383.341 213.473C391.726 213.473 396.71 216.332 398.294 222.051L390.006 223.847C389.504 220.988 387.398 219.559 383.689 219.559C380.637 219.559 379.11 220.37 379.11 221.993C379.11 223.5 380.54 224.388 383.399 224.659L389.774 225.296C392.595 225.567 394.817 226.494 396.439 228.078C398.062 229.624 398.912 231.594 398.99 233.99C398.99 234.029 398.99 234.067 398.99 234.106C398.99 237.236 397.753 239.631 395.28 241.293C392.808 242.915 389.195 243.727 384.442 243.727C380.888 243.727 377.661 242.973 374.764 241.466C371.904 239.921 370.204 237.873 369.663 235.323L378.067 233.294ZM401.062 214.053H408.771L410.104 221.819H410.278C411.205 219.153 412.654 217.105 414.624 215.675C416.634 214.207 419.01 213.473 421.753 213.473C426.235 213.473 429.616 214.787 431.896 217.414C434.214 220.042 435.373 223.789 435.373 228.658C435.373 233.41 434.156 237.12 431.722 239.786C429.288 242.413 425.733 243.727 421.058 243.727C418.508 243.727 416.286 242.993 414.393 241.524C412.499 240.056 411.089 237.989 410.162 235.323H409.988L410.104 253H401.062V214.053ZM409.814 228.658C409.814 231.131 410.452 232.889 411.727 233.932C413.002 234.975 415.146 235.497 418.16 235.497C421.096 235.497 423.183 234.975 424.419 233.932C425.694 232.889 426.332 231.131 426.332 228.658C426.332 226.146 425.714 224.369 424.477 223.326C423.241 222.244 421.135 221.703 418.16 221.703C415.107 221.703 412.944 222.225 411.669 223.268C410.432 224.311 409.814 226.108 409.814 228.658ZM443.12 217.472C445.902 214.806 449.688 213.473 454.479 213.473C460.005 213.473 463.926 214.883 466.245 217.704C468.563 220.525 469.722 224.041 469.722 228.252C469.722 228.909 469.703 229.585 469.664 230.281H447.467C447.776 234.222 450.133 236.192 454.537 236.192C458.169 236.192 460.43 234.743 461.318 231.846L468.679 234.627C468.37 235.709 467.906 236.733 467.288 237.699C466.67 238.665 465.82 239.631 464.738 240.597C463.695 241.524 462.304 242.278 460.565 242.857C458.826 243.437 456.875 243.727 454.711 243.727C449.804 243.727 445.94 242.394 443.12 239.728C440.299 237.062 438.889 233.372 438.889 228.658C438.889 223.867 440.299 220.138 443.12 217.472ZM447.409 225.586H461.318C460.971 222.302 458.71 220.66 454.537 220.66C450.326 220.66 447.95 222.302 447.409 225.586ZM474.819 214.053H482.527L483.802 220.718H483.976C485.985 215.888 489.52 213.473 494.582 213.473C502.387 213.473 506.289 217.685 506.289 226.108V243.147H497.248V228.542C497.248 225.992 496.784 224.214 495.857 223.21C494.93 222.205 493.365 221.703 491.163 221.703C486.256 221.703 483.802 224.137 483.802 229.006V243.147H474.819V214.053ZM514.984 217.414C517.263 214.787 520.644 213.473 525.126 213.473C527.87 213.473 530.227 214.207 532.197 215.675C534.206 217.105 535.694 219.153 536.66 221.819H536.776V202.577H545.817V243.147H538.109L536.776 235.555H536.66C535.694 238.182 534.264 240.211 532.371 241.64C530.516 243.031 528.333 243.727 525.822 243.727C521.147 243.727 517.592 242.413 515.158 239.786C512.724 237.12 511.506 233.41 511.506 228.658C511.506 223.789 512.666 220.042 514.984 217.414ZM520.548 228.658C520.548 231.131 521.166 232.889 522.402 233.932C523.677 234.975 525.783 235.497 528.72 235.497C531.733 235.497 533.878 234.975 535.153 233.932C536.467 232.889 537.123 231.131 537.123 228.658C537.123 226.146 536.486 224.369 535.211 223.326C533.936 222.244 531.772 221.703 528.72 221.703C525.745 221.703 523.639 222.244 522.402 223.326C521.166 224.369 520.548 226.146 520.548 228.658ZM553.034 203.157H562.365V210.517H553.034V203.157ZM553.208 243.147V214.053H562.191V243.147H553.208ZM569.565 214.053H577.273L578.548 220.718H578.722C580.731 215.888 584.267 213.473 589.328 213.473C597.133 213.473 601.036 217.685 601.036 226.108V243.147H591.994V228.542C591.994 225.992 591.531 224.214 590.603 223.21C589.676 222.205 588.111 221.703 585.909 221.703C581.002 221.703 578.548 224.137 578.548 229.006V243.147H569.565V214.053ZM606.778 243.495C608.015 242.413 609.811 241.853 612.168 241.814V241.64C608.961 241.602 607.358 240.153 607.358 237.293C607.358 234.434 609.425 233.005 613.559 233.005V232.831C609.464 232.29 607.416 229.411 607.416 224.195C607.416 220.795 608.71 218.168 611.299 216.313C613.926 214.42 617.442 213.473 621.847 213.473C623.547 213.473 625.981 213.57 629.15 213.763C632.318 213.917 635.641 213.995 639.118 213.995V219.559H633.786V219.732C634.675 220.003 635.312 220.602 635.699 221.529C636.124 222.418 636.336 223.384 636.336 224.427C636.336 227.827 635.332 230.281 633.323 231.788C631.352 233.256 627.913 233.99 623.006 233.99C622.62 233.99 622.233 233.99 621.847 233.99C621.113 233.951 620.379 233.932 619.645 233.932C619.297 233.932 618.775 233.951 618.08 233.99C617.423 233.99 616.689 234.029 615.878 234.106C615.105 234.144 614.467 234.28 613.965 234.512C613.501 234.743 613.269 235.052 613.269 235.439C613.269 236.096 614.506 236.443 616.979 236.482C617.288 236.482 617.694 236.482 618.196 236.482C618.737 236.482 619.374 236.482 620.108 236.482H622.89C623.238 236.482 623.586 236.482 623.934 236.482C629.652 236.482 633.67 237.1 635.989 238.337C638.307 239.573 639.466 241.911 639.466 245.349C639.466 248.75 638.133 251.203 635.467 252.71C632.801 254.217 628.3 254.97 621.963 254.97C615.781 254.97 611.396 254.41 608.807 253.29C606.218 252.208 604.924 250.237 604.924 247.378C604.924 245.871 605.542 244.577 606.778 243.495ZM615.414 247.842C616.496 248.151 618.679 248.305 621.963 248.305C625.286 248.305 627.508 248.131 628.628 247.784C629.749 247.475 630.309 246.663 630.309 245.349C630.309 243.997 629.865 243.186 628.976 242.915C628.087 242.606 626.252 242.452 623.47 242.452H616.051C614.506 242.799 613.733 243.765 613.733 245.349C613.733 246.663 614.293 247.494 615.414 247.842ZM617.558 227.093C618.447 227.673 619.877 227.962 621.847 227.962C623.779 227.962 625.189 227.653 626.078 227.035C627.005 226.417 627.469 225.451 627.469 224.137C627.469 221.819 625.595 220.66 621.847 220.66C618.177 220.66 616.322 221.819 616.283 224.137C616.283 224.214 616.283 224.272 616.283 224.311C616.283 225.663 616.708 226.591 617.558 227.093ZM642.027 250.913L645.794 243.147H643.418V235.033H651.3V243.147L646.026 250.913H642.027ZM105.525 272.577V291.819H105.699C106.665 289.153 108.133 287.105 110.104 285.675C112.113 284.207 114.47 283.473 117.174 283.473C121.695 283.473 125.095 284.787 127.375 287.414C129.693 290.042 130.852 293.789 130.852 298.658C130.852 303.41 129.635 307.12 127.201 309.786C124.767 312.413 121.212 313.727 116.537 313.727C114.025 313.727 111.823 313.031 109.93 311.64C108.075 310.211 106.665 308.182 105.699 305.555H105.525L104.25 313.147H96.5416V272.577H105.525ZM105.235 298.658C105.235 301.131 105.873 302.889 107.148 303.932C108.461 304.975 110.625 305.497 113.639 305.497C116.575 305.497 118.662 304.975 119.898 303.932C121.173 302.889 121.811 301.131 121.811 298.658C121.811 296.146 121.193 294.369 119.956 293.326C118.72 292.244 116.614 291.703 113.639 291.703C110.586 291.703 108.423 292.244 107.148 293.326C105.873 294.369 105.235 296.146 105.235 298.658ZM135.983 284.053H144.966V298.658C144.966 301.208 145.43 302.985 146.357 303.99C147.284 304.995 148.849 305.497 151.052 305.497C155.959 305.497 158.412 303.063 158.412 298.194V284.053H167.453V313.147H159.687L158.47 306.482H158.296C156.789 311.312 153.235 313.727 147.632 313.727C139.866 313.727 135.983 309.515 135.983 301.092V284.053ZM175.46 284.053L178.532 284.111L180.619 275.649H187.573V284.111L191.515 284.053H196.963V291.993H191.515L187.573 291.935V304.975L187.805 305.265H196.383V313.147H188.501C185.255 313.147 182.782 312.278 181.082 310.539C179.382 308.8 178.532 306.347 178.532 303.179V291.935L175.46 291.993H171.983V284.053H175.46ZM225.845 303.294C226.618 305.883 228.897 307.178 232.684 307.178C236.045 307.178 237.726 306.385 237.726 304.801C237.688 303.372 236.045 302.425 232.8 301.961L227.352 301.266C224.377 300.918 222.078 299.972 220.455 298.426C218.832 296.842 217.982 294.813 217.905 292.341C217.905 292.302 217.905 292.263 217.905 292.225C217.905 289.404 219.025 287.24 221.266 285.733C223.507 284.227 226.792 283.473 231.119 283.473C239.504 283.473 244.488 286.332 246.072 292.051L237.784 293.847C237.282 290.988 235.176 289.559 231.467 289.559C228.414 289.559 226.888 290.37 226.888 291.993C226.888 293.5 228.318 294.388 231.177 294.659L237.552 295.296C240.373 295.567 242.595 296.494 244.217 298.078C245.84 299.624 246.69 301.594 246.768 303.99C246.768 304.029 246.768 304.067 246.768 304.106C246.768 307.236 245.531 309.631 243.058 311.293C240.585 312.915 236.973 313.727 232.22 313.727C228.666 313.727 225.439 312.973 222.542 311.466C219.682 309.921 217.982 307.873 217.441 305.323L225.845 303.294ZM248.84 284.053H256.549L257.882 291.819H258.056C258.983 289.153 260.432 287.105 262.402 285.675C264.412 284.207 266.788 283.473 269.531 283.473C274.013 283.473 277.394 284.787 279.674 287.414C281.992 290.042 283.151 293.789 283.151 298.658C283.151 303.41 281.934 307.12 279.5 309.786C277.065 312.413 273.511 313.727 268.836 313.727C266.285 313.727 264.064 312.993 262.171 311.524C260.277 310.056 258.867 307.989 257.94 305.323H257.766L257.882 323H248.84V284.053ZM257.592 298.658C257.592 301.131 258.229 302.889 259.504 303.932C260.78 304.975 262.924 305.497 265.938 305.497C268.874 305.497 270.961 304.975 272.197 303.932C273.472 302.889 274.11 301.131 274.11 298.658C274.11 296.146 273.491 294.369 272.255 293.326C271.019 292.244 268.913 291.703 265.938 291.703C262.885 291.703 260.722 292.225 259.447 293.268C258.21 294.311 257.592 296.108 257.592 298.658ZM290.898 287.472C293.68 284.806 297.466 283.473 302.257 283.473C307.783 283.473 311.704 284.883 314.023 287.704C316.341 290.525 317.5 294.041 317.5 298.252C317.5 298.909 317.481 299.585 317.442 300.281H295.245C295.554 304.222 297.911 306.192 302.315 306.192C305.947 306.192 308.208 304.743 309.096 301.846L316.457 304.627C316.148 305.709 315.684 306.733 315.066 307.699C314.448 308.665 313.598 309.631 312.516 310.597C311.472 311.524 310.082 312.278 308.343 312.857C306.604 313.437 304.653 313.727 302.489 313.727C297.582 313.727 293.718 312.394 290.898 309.728C288.077 307.062 286.667 303.372 286.667 298.658C286.667 293.867 288.077 290.138 290.898 287.472ZM295.187 295.586H309.096C308.749 292.302 306.488 290.66 302.315 290.66C298.104 290.66 295.727 292.302 295.187 295.586ZM322.597 284.053H330.305L331.58 290.718H331.754C333.763 285.888 337.298 283.473 342.36 283.473C350.165 283.473 354.067 287.685 354.067 296.108V313.147H345.026V298.542C345.026 295.992 344.562 294.214 343.635 293.21C342.708 292.205 341.143 291.703 338.94 291.703C334.033 291.703 331.58 294.137 331.58 299.006V313.147H322.597V284.053ZM362.762 287.414C365.041 284.787 368.422 283.473 372.904 283.473C375.648 283.473 378.004 284.207 379.975 285.675C381.984 287.105 383.472 289.153 384.438 291.819H384.554V272.577H393.595V313.147H385.887L384.554 305.555H384.438C383.472 308.182 382.042 310.211 380.149 311.64C378.294 313.031 376.111 313.727 373.6 313.727C368.924 313.727 365.37 312.413 362.936 309.786C360.501 307.12 359.284 303.41 359.284 298.658C359.284 293.789 360.443 290.042 362.762 287.414ZM368.326 298.658C368.326 301.131 368.944 302.889 370.18 303.932C371.455 304.975 373.561 305.497 376.498 305.497C379.511 305.497 381.656 304.975 382.931 303.932C384.244 302.889 384.901 301.131 384.901 298.658C384.901 296.146 384.264 294.369 382.989 293.326C381.714 292.244 379.55 291.703 376.498 291.703C373.522 291.703 371.417 292.244 370.18 293.326C368.944 294.369 368.326 296.146 368.326 298.658ZM414.95 284.053H424.571L429.497 304.048L436.163 284.053H444.914L451.637 304.28L456.621 284.053H466.01L456.853 313.147H447.464L440.567 294.369L433.554 313.147H424.281L414.95 284.053ZM479.359 272.577V290.718H479.533C480.19 288.399 481.426 286.622 483.242 285.386C485.058 284.111 487.357 283.473 490.139 283.473C497.944 283.473 501.846 287.685 501.846 296.108V313.147H492.805V298.542C492.805 295.992 492.341 294.214 491.414 293.21C490.487 292.205 488.922 291.703 486.72 291.703C481.813 291.703 479.359 294.137 479.359 299.006V313.147H470.376V272.577H479.359ZM507.01 305.787C507.01 303.816 507.512 302.271 508.516 301.15C509.521 299.991 511.356 298.986 514.022 298.136C516.727 297.286 520.803 296.455 526.251 295.644L529.149 295.18L529.091 294.079C528.937 292.688 528.396 291.742 527.468 291.239C526.541 290.737 525.053 290.486 523.006 290.486C518.717 290.486 516.495 292.051 516.341 295.18L508.922 293.326C509.077 290.196 510.506 287.781 513.211 286.081C515.954 284.342 519.258 283.473 523.122 283.473C527.526 283.473 531.081 284.439 533.786 286.371C536.49 288.264 537.843 290.988 537.843 294.543V313.147H530.134L529.091 307.12H528.917C527.179 311.524 523.508 313.727 517.905 313.727C514.621 313.727 511.975 313.012 509.965 311.582C507.995 310.114 507.01 308.182 507.01 305.787ZM520.919 307.525C523.122 307.525 525.015 306.733 526.599 305.149C528.222 303.565 529.072 301.807 529.149 299.875L526.657 300.281C522.87 300.976 520.127 301.652 518.427 302.309C516.766 302.927 515.935 303.777 515.935 304.859C515.935 306.637 517.596 307.525 520.919 307.525ZM544.597 284.053L547.669 284.111L549.755 275.649H556.71V284.111L560.651 284.053H566.099V291.993H560.651L556.71 291.935V304.975L556.942 305.265H565.519V313.147H557.637C554.392 313.147 551.919 312.278 550.219 310.539C548.519 308.8 547.669 306.347 547.669 303.179V291.935L544.597 291.993H541.12V284.053H544.597ZM588.606 273.157H597.937V280.517H588.606V273.157ZM588.78 313.147V284.053H597.764V313.147H588.78ZM611.339 303.294C612.111 305.883 614.391 307.178 618.177 307.178C621.539 307.178 623.22 306.385 623.22 304.801C623.181 303.372 621.539 302.425 618.293 301.961L612.845 301.266C609.87 300.918 607.571 299.972 605.949 298.426C604.326 296.842 603.476 294.813 603.398 292.341C603.398 292.302 603.398 292.263 603.398 292.225C603.398 289.404 604.519 287.24 606.76 285.733C609.001 284.227 612.285 283.473 616.613 283.473C624.997 283.473 629.981 286.332 631.566 292.051L623.278 293.847C622.775 290.988 620.67 289.559 616.96 289.559C613.908 289.559 612.382 290.37 612.382 291.993C612.382 293.5 613.811 294.388 616.671 294.659L623.046 295.296C625.866 295.567 628.088 296.494 629.711 298.078C631.334 299.624 632.184 301.594 632.261 303.99C632.261 304.029 632.261 304.067 632.261 304.106C632.261 307.236 631.025 309.631 628.552 311.293C626.079 312.915 622.466 313.727 617.714 313.727C614.159 313.727 610.933 312.973 608.035 311.466C605.176 309.921 603.476 307.873 602.935 305.323L611.339 303.294ZM116.832 342.577H125.816V375.091L125.989 375.265H131.09V383.147H125.931C122.956 382.993 120.696 382.065 119.15 380.365C117.605 378.626 116.832 376.231 116.832 373.179V342.577ZM137.883 357.472C140.665 354.806 144.452 353.473 149.243 353.473C154.768 353.473 158.69 354.883 161.008 357.704C163.326 360.525 164.486 364.041 164.486 368.252C164.486 368.909 164.466 369.585 164.428 370.281H142.23C142.539 374.222 144.896 376.192 149.301 376.192C152.933 376.192 155.193 374.743 156.082 371.846L163.442 374.627C163.133 375.709 162.67 376.733 162.051 377.699C161.433 378.665 160.583 379.631 159.501 380.597C158.458 381.524 157.067 382.278 155.328 382.857C153.59 383.437 151.638 383.727 149.475 383.727C144.568 383.727 140.704 382.394 137.883 379.728C135.063 377.062 133.652 373.372 133.652 368.658C133.652 363.867 135.063 360.138 137.883 357.472ZM142.172 365.586H156.082C155.734 362.302 153.474 360.66 149.301 360.66C145.089 360.66 142.713 362.302 142.172 365.586ZM171.474 354.053L174.778 354.111V349.996C174.778 346.982 175.667 344.567 177.444 342.751C179.26 340.935 181.675 340.027 184.689 340.027H193.382V347.967L183.935 347.909L183.819 348.083V354.111L187.702 354.053H193.324V361.993H187.702L183.819 361.935V383.147H174.778V361.935L171.474 361.993H167.301V354.053H171.474ZM198.241 354.053L201.313 354.111L203.4 345.649H210.354V354.111L214.296 354.053H219.743V361.993H214.296L210.354 361.935V374.975L210.586 375.265H219.164V383.147H211.282C208.036 383.147 205.563 382.278 203.863 380.539C202.163 378.8 201.313 376.347 201.313 373.179V361.935L198.241 361.993H194.764V354.053H198.241ZM240.628 375.787C240.628 373.816 241.13 372.271 242.135 371.15C243.139 369.991 244.975 368.986 247.641 368.136C250.345 367.286 254.422 366.455 259.87 365.644L262.768 365.18L262.71 364.079C262.555 362.688 262.014 361.742 261.087 361.239C260.159 360.737 258.672 360.486 256.624 360.486C252.335 360.486 250.114 362.051 249.959 365.18L242.541 363.326C242.695 360.196 244.125 357.781 246.829 356.081C249.573 354.342 252.876 353.473 256.74 353.473C261.145 353.473 264.699 354.439 267.404 356.371C270.109 358.264 271.461 360.988 271.461 364.543V383.147H263.753L262.71 377.12H262.536C260.797 381.524 257.126 383.727 251.524 383.727C248.24 383.727 245.593 383.012 243.584 381.582C241.613 380.114 240.628 378.182 240.628 375.787ZM254.538 377.525C256.74 377.525 258.633 376.733 260.217 375.149C261.84 373.565 262.69 371.807 262.768 369.875L260.275 370.281C256.489 370.976 253.746 371.652 252.045 372.309C250.384 372.927 249.553 373.777 249.553 374.859C249.553 376.637 251.215 377.525 254.538 377.525ZM279.182 354.053L282.485 354.111V349.996C282.485 346.982 283.374 344.567 285.151 342.751C286.967 340.935 289.382 340.027 292.396 340.027H301.089V347.967L291.642 347.909L291.526 348.083V354.111L295.41 354.053H301.031V361.993H295.41L291.526 361.935V383.147H282.485V361.935L279.182 361.993H275.009V354.053H279.182ZM305.949 354.053L309.02 354.111L311.107 345.649H318.062V354.111L322.003 354.053H327.451V361.993H322.003L318.062 361.935V374.975L318.294 375.265H326.871V383.147H318.989C315.743 383.147 313.271 382.278 311.571 380.539C309.87 378.8 309.02 376.347 309.02 373.179V361.935L305.949 361.993H302.471V354.053H305.949ZM335.356 357.472C338.138 354.806 341.924 353.473 346.716 353.473C352.241 353.473 356.163 354.883 358.481 357.704C360.799 360.525 361.958 364.041 361.958 368.252C361.958 368.909 361.939 369.585 361.9 370.281H339.703C340.012 374.222 342.369 376.192 346.774 376.192C350.405 376.192 352.666 374.743 353.554 371.846L360.915 374.627C360.606 375.709 360.142 376.733 359.524 377.699C358.906 378.665 358.056 379.631 356.974 380.597C355.931 381.524 354.54 382.278 352.801 382.857C351.062 383.437 349.111 383.727 346.947 383.727C342.04 383.727 338.177 382.394 335.356 379.728C332.535 377.062 331.125 373.372 331.125 368.658C331.125 363.867 332.535 360.138 335.356 357.472ZM339.645 365.586H353.554C353.207 362.302 350.946 360.66 346.774 360.66C342.562 360.66 340.186 362.302 339.645 365.586ZM374.763 354.053L376.038 361.993H376.154C376.579 360.177 377.197 358.709 378.009 357.588C378.82 356.468 379.902 355.656 381.254 355.154C382.607 354.652 383.843 354.342 384.964 354.227C386.084 354.111 387.243 354.053 388.441 354.053C389.136 354.053 389.871 354.072 390.643 354.111L389.484 362.399C389.291 362.399 389.079 362.399 388.847 362.399C387.108 362.399 385.505 362.553 384.036 362.862C382.568 363.171 381.196 363.732 379.921 364.543C378.685 365.354 377.719 366.552 377.023 368.136C376.367 369.682 376.038 371.575 376.038 373.816V383.147H367.055V354.053H374.763ZM418.479 373.294C419.251 375.883 421.531 377.178 425.318 377.178C428.679 377.178 430.36 376.385 430.36 374.801C430.321 373.372 428.679 372.425 425.433 371.961L419.985 371.266C417.01 370.918 414.711 369.972 413.089 368.426C411.466 366.842 410.616 364.813 410.538 362.341C410.538 362.302 410.538 362.263 410.538 362.225C410.538 359.404 411.659 357.24 413.9 355.733C416.141 354.227 419.425 353.473 423.753 353.473C432.137 353.473 437.121 356.332 438.706 362.051L430.418 363.847C429.915 360.988 427.81 359.559 424.1 359.559C421.048 359.559 419.522 360.37 419.522 361.993C419.522 363.5 420.951 364.388 423.811 364.659L430.186 365.296C433.006 365.567 435.228 366.494 436.851 368.078C438.474 369.624 439.324 371.594 439.401 373.99C439.401 374.029 439.401 374.067 439.401 374.106C439.401 377.236 438.165 379.631 435.692 381.293C433.219 382.915 429.606 383.727 424.854 383.727C421.299 383.727 418.073 382.973 415.175 381.466C412.316 379.921 410.616 377.873 410.075 375.323L418.479 373.294ZM442.402 375.787C442.402 373.816 442.904 372.271 443.909 371.15C444.914 369.991 446.749 368.986 449.415 368.136C452.12 367.286 456.196 366.455 461.644 365.644L464.542 365.18L464.484 364.079C464.329 362.688 463.788 361.742 462.861 361.239C461.934 360.737 460.446 360.486 458.398 360.486C454.109 360.486 451.888 362.051 451.733 365.18L444.315 363.326C444.469 360.196 445.899 357.781 448.604 356.081C451.347 354.342 454.65 353.473 458.514 353.473C462.919 353.473 466.474 354.439 469.178 356.371C471.883 358.264 473.235 360.988 473.235 364.543V383.147H465.527L464.484 377.12H464.31C462.571 381.524 458.901 383.727 453.298 383.727C450.014 383.727 447.367 383.012 445.358 381.582C443.387 380.114 442.402 378.182 442.402 375.787ZM456.312 377.525C458.514 377.525 460.407 376.733 461.992 375.149C463.614 373.565 464.464 371.807 464.542 369.875L462.05 370.281C458.263 370.976 455.52 371.652 453.82 372.309C452.158 372.927 451.328 373.777 451.328 374.859C451.328 376.637 452.989 377.525 456.312 377.525ZM485.058 354.053L492.186 374.338L499.315 354.053H509.516L497.345 383.147H487.028L474.857 354.053H485.058ZM513.641 343.157H522.972V350.517H513.641V343.157ZM513.815 383.147V354.053H522.799V383.147H513.815ZM530.172 354.053H537.88L539.156 360.718H539.329C541.339 355.888 544.874 353.473 549.936 353.473C557.74 353.473 561.643 357.685 561.643 366.108V383.147H552.602V368.542C552.602 365.992 552.138 364.214 551.211 363.21C550.283 362.205 548.718 361.703 546.516 361.703C541.609 361.703 539.156 364.137 539.156 369.006V383.147H530.172V354.053ZM567.386 383.495C568.622 382.413 570.419 381.853 572.776 381.814V381.64C569.569 381.602 567.965 380.153 567.965 377.293C567.965 374.434 570.032 373.005 574.167 373.005V372.831C570.071 372.29 568.023 369.411 568.023 364.195C568.023 360.795 569.317 358.168 571.906 356.313C574.534 354.42 578.05 353.473 582.454 353.473C584.154 353.473 586.589 353.57 589.757 353.763C592.925 353.917 596.248 353.995 599.726 353.995V359.559H594.394V359.732C595.282 360.003 595.92 360.602 596.306 361.529C596.731 362.418 596.944 363.384 596.944 364.427C596.944 367.827 595.939 370.281 593.93 371.788C591.959 373.256 588.521 373.99 583.614 373.99C583.227 373.99 582.841 373.99 582.454 373.99C581.72 373.951 580.986 373.932 580.252 373.932C579.904 373.932 579.383 373.951 578.687 373.99C578.03 373.99 577.296 374.029 576.485 374.106C575.712 374.144 575.075 374.28 574.572 374.512C574.109 374.743 573.877 375.052 573.877 375.439C573.877 376.096 575.113 376.443 577.586 376.482C577.895 376.482 578.301 376.482 578.803 376.482C579.344 376.482 579.982 376.482 580.716 376.482H583.498C583.845 376.482 584.193 376.482 584.541 376.482C590.259 376.482 594.278 377.1 596.596 378.337C598.914 379.573 600.073 381.911 600.073 385.349C600.073 388.75 598.74 391.203 596.074 392.71C593.408 394.217 588.907 394.97 582.57 394.97C576.388 394.97 572.003 394.41 569.414 393.29C566.825 392.208 565.531 390.237 565.531 387.378C565.531 385.871 566.149 384.577 567.386 383.495ZM576.021 387.842C577.103 388.151 579.286 388.305 582.57 388.305C585.893 388.305 588.115 388.131 589.235 387.784C590.356 387.475 590.916 386.663 590.916 385.349C590.916 383.997 590.472 383.186 589.583 382.915C588.694 382.606 586.859 382.452 584.077 382.452H576.659C575.113 382.799 574.34 383.765 574.34 385.349C574.34 386.663 574.901 387.494 576.021 387.842ZM578.166 367.093C579.054 367.673 580.484 367.962 582.454 367.962C584.386 367.962 585.797 367.653 586.685 367.035C587.613 366.417 588.076 365.451 588.076 364.137C588.076 361.819 586.202 360.66 582.454 360.66C578.784 360.66 576.929 361.819 576.891 364.137C576.891 364.214 576.891 364.272 576.891 364.311C576.891 365.663 577.316 366.591 578.166 367.093ZM603.04 383.147V375.033H610.864V383.147H603.04Z" fill="black"/>
<rect x="5.17025" y="5.17025" width="716.011" height="456.412" stroke="black" stroke-width="9.6595" shape-rendering="crispEdges"/>
</g>
<defs>
<filter id="filter0_d_213_32529" x="0.340332" y="0.340485" width="741.67" height="478.071" filterUnits="userSpaceOnUse" color-interpolation-filters="sRGB">
<feFlood flood-opacity="0" result="BackgroundImageFix"/>
<feColorMatrix in="SourceAlpha" type="matrix" values="0 0 0 0 0 0 0 0 0 0 0 0 0 0 0 0 0 0 127 0" result="hardAlpha"/>
<feOffset dx="16" dy="12"/>
<feComposite in2="hardAlpha" operator="out"/>
<feColorMatrix type="matrix" values="0 0 0 0 0 0 0 0 0 0 0 0 0 0 0 0 0 0 1 0"/>
<feBlend mode="normal" in2="BackgroundImageFix" result="effect1_dropShadow_213_32529"/>
<feBlend mode="normal" in="SourceGraphic" in2="effect1_dropShadow_213_32529" result="shape"/>
</filter>
</defs>
</svg>
