<svg width="165" height="207" viewBox="0 0 165 207" fill="none" xmlns="http://www.w3.org/2000/svg">
<g clip-path="url(#clip0_263_32954)">
<path fill-rule="evenodd" clip-rule="evenodd" d="M15.5064 5.64697V15.9386H5.21484V108.563H10.3606V113.709H20.6522V118.855H30.9438V124H41.2354V129.146H51.527V134.292H61.8186V139.438H72.1102V144.584H82.4018V149.729H92.6934V154.875H102.985V160.021H113.277V67.3966H118.422V160.021H123.568V46.8134H118.422V41.6676H113.277V36.5218H102.985V31.376H92.6934V26.2302H72.1102V31.376H66.9644V26.2302H61.8186V21.0844H56.6728V15.9386H46.3812V10.7928H36.0896V5.64697H15.5064ZM108.131 62.2508H113.277V67.3966H108.131V62.2508ZM97.8392 57.105H108.131V62.2508H97.8392V57.105ZM87.5476 51.9592H97.8392V57.105H87.5476V51.9592ZM77.256 46.8134H87.5476V51.9592H77.256V46.8134ZM66.9644 41.6676H77.256V46.8134H66.9644V41.6676ZM56.6728 36.5218H66.9644V41.6676H56.6728V36.5218ZM46.3812 31.376H56.6728V36.5218H46.3812V31.376ZM36.0896 26.2302H46.3812V31.376H36.0896V26.2302ZM25.798 21.0844H36.0896V26.2302H25.798V21.0844ZM25.798 21.0844V15.9386H15.5064V21.0844H25.798Z" fill="#FFA1DA"/>
<g clip-path="url(#clip1_263_32954)">
<path fill-rule="evenodd" clip-rule="evenodd" d="M75.1629 77.6882L75.1629 80.2611L77.3911 81.5475L77.3911 122.714L75.1629 121.427L75.1629 124L35.0553 100.844L35.0553 98.2714L32.8271 96.9849L32.8271 55.8185L35.0553 57.105L35.0553 54.5321L43.9681 59.6779L43.9681 57.105L48.4245 59.6779L48.4245 62.2508L61.7937 69.9695L61.7937 67.3966L66.2501 69.9695L66.2501 72.5424L75.1629 77.6882ZM70.7065 113.709L72.9347 114.995L72.9347 84.1204L70.7065 82.834L70.7065 80.2611L66.2501 77.6882L66.2501 80.2611L66.2501 82.834L61.7937 80.2611L61.7937 75.1153L48.4245 67.3966L48.4245 72.5424L43.9681 69.9695L43.9681 64.8237L39.5117 62.2508L39.5117 64.8237L37.2835 63.5372L37.2835 94.412L39.5117 95.6985L39.5117 98.2714L70.7065 116.282L70.7065 113.709ZM61.7936 87.9798L66.25 90.5527L66.25 95.6985L61.7936 93.1256L61.7936 87.9798ZM48.4244 80.2611L43.968 77.6882L43.968 82.834L48.4244 85.4069L48.4244 80.2611ZM57.3366 85.4069L52.8802 82.834L52.8802 87.9798L57.3366 90.5527L57.3366 85.4069ZM48.4244 90.5527L43.968 87.9798L43.968 93.1256L48.4244 95.6985L48.4244 90.5527ZM52.8802 93.1256L57.3366 95.6985L57.3366 100.844L52.8802 98.2714L52.8802 93.1256ZM66.25 100.844L61.7936 98.2714L61.7936 103.417L66.25 105.99L66.25 100.844Z" fill="black"/>
</g>
<path d="M10.36 0.501221H36.089V5.64702H15.5058V15.9386H5.21416V108.563H10.36V113.709H0.0683594V10.7928H10.36V0.501221Z" fill="black"/>
<path d="M20.6516 118.855V113.709H10.36V118.855H20.6516Z" fill="black"/>
<path d="M30.9432 124V118.855H20.6516V124H30.9432Z" fill="black"/>
<path d="M41.2348 129.146V124H30.9432V129.146H41.2348Z" fill="black"/>
<path d="M51.5264 134.292V129.146H41.2348V134.292H51.5264Z" fill="black"/>
<path d="M61.818 139.438V134.292H51.5264V139.438H61.818Z" fill="black"/>
<path d="M72.1096 144.584V139.438H61.818V144.584H72.1096Z" fill="black"/>
<path d="M82.4012 149.729V144.584H72.1096V149.729H82.4012Z" fill="black"/>
<path d="M92.6928 154.875V149.729H82.4012V154.875H92.6928Z" fill="black"/>
<path d="M102.984 160.021V154.875H92.6928V160.021H102.984Z" fill="black"/>
<path d="M113.276 67.3966V160.021H102.984V165.167H139.005V160.021H144.151V154.875H149.297V149.729H154.442V144.584H159.588V139.438H164.734V113.709H154.442V108.563H144.151V103.417H128.713V46.8134H123.568V41.6676H118.422V36.5218H113.276V31.376H102.984V26.2302H92.6928V21.0844H72.1096V26.2302H66.9638V21.0844H61.818V15.9386H56.6722V10.7928H46.3806V5.64702H36.089V10.7928H46.3806V15.9386H56.6722V21.0844H61.818V26.2302H66.9638V31.376H72.1096V26.2302H92.6928V31.376H102.984V36.5218H113.276V41.6676H118.422V46.8134H123.568V160.021H118.422V67.3966H113.276Z" fill="black"/>
<path d="M108.13 62.2508V67.3966H113.276V62.2508H108.13Z" fill="black"/>
<path d="M97.8386 57.105H108.13V62.2508H97.8386V57.105Z" fill="black"/>
<path d="M87.547 51.9592H97.8386V57.105H87.547V51.9592Z" fill="black"/>
<path d="M77.2554 46.8134H87.547V51.9592H77.2554V46.8134Z" fill="black"/>
<path d="M66.9638 41.6676H77.2554V46.8134H66.9638V41.6676Z" fill="black"/>
<path d="M56.6722 36.5218H66.9638V41.6676H56.6722V36.5218Z" fill="black"/>
<path d="M46.3806 31.376H56.6722V36.5218H46.3806V31.376Z" fill="black"/>
<path d="M36.089 26.2302H46.3806V31.376H36.089V26.2302Z" fill="black"/>
<path d="M25.7974 21.0844H36.089V26.2302H25.7974V21.0844Z" fill="black"/>
<path d="M25.7974 21.0844V15.9386H15.5058V21.0844H25.7974Z" fill="black"/>
</g>
<path d="M28.8739 200.767C26.524 200.767 24.783 199.961 23.6509 198.349C22.536 196.736 21.9785 194.446 21.9785 191.479C21.9785 188.529 22.536 186.247 23.6509 184.635C24.783 183.006 26.524 182.191 28.8739 182.191C29.7658 182.191 30.5463 182.311 31.2152 182.551C31.9013 182.791 32.4931 183.126 32.9905 183.554C33.488 183.966 33.8996 184.472 34.2255 185.072C34.5514 185.656 34.8087 186.299 34.9974 187.002L31.9099 187.877C31.7899 187.465 31.6526 187.079 31.4983 186.719C31.3439 186.359 31.1466 186.05 30.9065 185.793C30.6835 185.518 30.4005 185.313 30.0574 185.175C29.7144 185.021 29.3027 184.944 28.8224 184.944C27.6561 184.944 26.8156 185.39 26.301 186.282C25.8036 187.174 25.5549 188.391 25.5549 189.935V193.023C25.5549 194.566 25.8036 195.784 26.301 196.676C26.8156 197.568 27.6561 198.014 28.8224 198.014C29.3027 198.014 29.7144 197.946 30.0574 197.808C30.4005 197.654 30.6835 197.448 30.9065 197.191C31.1466 196.916 31.3439 196.599 31.4983 196.239C31.6526 195.879 31.7899 195.493 31.9099 195.081L34.9974 195.956C34.8087 196.659 34.5514 197.311 34.2255 197.911C33.8996 198.494 33.488 199 32.9905 199.429C32.4931 199.841 31.9013 200.167 31.2152 200.407C30.5463 200.647 29.7658 200.767 28.8739 200.767ZM47.6717 200.458L46.411 195.904H41.0851L39.8501 200.458H36.4539L41.4968 182.5H46.1795L51.2481 200.458H47.6717ZM43.8639 185.819H43.658L41.6769 193.151H45.845L43.8639 185.819ZM54.1197 200.458V182.5H57.4902V197.68H65.4404V200.458H54.1197ZM69.1096 200.458V182.5H80.4561V185.278H72.4801V189.961H80.1731V192.74H72.4801V197.68H80.4561V200.458H69.1096ZM87.2642 187.568H87.007V200.458H84.1253V182.5H88.2677L92.9761 195.39H93.2334V182.5H96.115V200.458H91.9727L87.2642 187.568ZM99.707 182.5H105.29C107.623 182.5 109.355 183.271 110.487 184.815C111.637 186.359 112.211 188.58 112.211 191.479C112.211 194.395 111.637 196.625 110.487 198.168C109.355 199.695 107.623 200.458 105.29 200.458H99.707V182.5ZM105.059 197.757C106.294 197.757 107.203 197.354 107.786 196.548C108.386 195.741 108.686 194.566 108.686 193.023V189.909C108.686 188.383 108.386 187.217 107.786 186.41C107.203 185.604 106.294 185.201 105.059 185.201H103.026V197.757H105.059ZM124.808 200.458L123.548 195.904H118.222L116.987 200.458H113.591L118.634 182.5H123.316L128.385 200.458H124.808ZM121.001 185.819H120.795L118.814 193.151H122.982L121.001 185.819ZM134.112 200.458H130.742V182.5H137.56C139.31 182.5 140.647 182.997 141.574 183.992C142.5 184.987 142.963 186.342 142.963 188.057C142.963 189.378 142.654 190.493 142.037 191.402C141.437 192.294 140.57 192.86 139.438 193.1L143.272 200.458H139.567L136.145 193.486H134.112V200.458ZM136.865 190.861C137.774 190.861 138.426 190.681 138.821 190.321C139.215 189.944 139.412 189.352 139.412 188.546V187.568C139.412 186.762 139.215 186.179 138.821 185.819C138.426 185.441 137.774 185.253 136.865 185.253H134.112V190.861H136.865Z" fill="black"/>
<defs>
<clipPath id="clip0_263_32954">
<rect width="164.666" height="164.666" fill="white" transform="translate(0.0683594 0.50116)"/>
</clipPath>
<clipPath id="clip1_263_32954">
<rect width="61.7496" height="61.7496" fill="white" transform="matrix(0.866025 0.5 -2.20305e-08 1 28.3701 40.3811)"/>
</clipPath>
</defs>
</svg>
