<svg width="167" height="212" viewBox="0 0 167 212" fill="none" xmlns="http://www.w3.org/2000/svg">
<g clip-path="url(#clip0_263_32948)">
<path fill-rule="evenodd" clip-rule="evenodd" d="M15.6562 5.21875V15.6562H5.21875V109.594H10.4375V114.812H20.875V120.031H31.3125V125.25H41.75V130.469H52.1875V135.688H62.625V140.906H73.0625V146.125H83.5V151.344H93.9375V156.562H104.375V161.781H114.812V67.8438H120.031V161.781H125.25V46.9688H120.031V41.75H114.812V36.5312H104.375V31.3125H93.9375V26.0938H73.0625V31.3125H67.8438V26.0938H62.625V20.875H57.4062V15.6562H46.9688V10.4375H36.5312V5.21875H15.6562ZM109.594 62.625H114.812V67.8438H109.594V62.625ZM99.1562 57.4062H109.594V62.625H99.1562V57.4062ZM88.7188 52.1875H99.1562V57.4062H88.7188V52.1875ZM78.2812 46.9688H88.7188V52.1875H78.2812V46.9688ZM67.8438 41.75H78.2812V46.9688H67.8438V41.75ZM57.4062 36.5312H67.8438V41.75H57.4062V36.5312ZM46.9688 31.3125H57.4062V36.5312H46.9688V31.3125ZM36.5312 26.0938H46.9688V31.3125H36.5312V26.0938ZM26.0938 20.875H36.5312V26.0938H26.0938V20.875ZM26.0938 20.875V15.6562H15.6562V20.875H26.0938Z" fill="#FFFF27"/>
<g clip-path="url(#clip1_263_32948)">
<path d="M76.1581 86.1094L76.1581 83.5L71.6385 80.8906L71.6385 78.2812L67.1189 75.6719L67.1189 73.0625L62.5994 70.4531L62.5994 67.8437L49.0407 60.0156L49.0407 62.625L44.5211 60.0156L44.5211 62.625L40.0015 60.0156L40.0015 62.625L35.482 60.0156L35.482 62.625L33.2222 61.3203L33.2222 66.5391L35.482 67.8437L35.482 93.9375L33.2222 92.6328L33.2222 97.8516L53.5602 109.594L53.5602 91.3281L58.0798 93.9375L58.0798 112.203L78.4179 123.945L78.4179 118.727L76.1581 117.422L76.1581 91.3281L78.4179 92.6328L78.4179 87.4141L76.1581 86.1094ZM71.6385 114.812L62.5994 109.594L62.5994 91.3281L49.0407 83.5L49.0407 101.766L40.0015 96.5469L40.0015 67.8437L44.5211 70.4531L44.5211 67.8437L49.0407 70.4531L49.0407 67.8437L53.5602 70.4531L53.5602 67.8437L58.0798 70.4531L58.0798 73.0625L62.5994 75.6719L62.5994 78.2812L67.1189 80.8906L67.1189 83.5L71.6385 86.1094L71.6385 114.812Z" fill="black"/>
</g>
<path d="M10.4375 0H36.5312V5.21875H15.6562V15.6562H5.21875V109.594H10.4375V114.812H0V10.4375H10.4375V0Z" fill="black"/>
<path d="M20.875 120.031V114.812H10.4375V120.031H20.875Z" fill="black"/>
<path d="M31.3125 125.25V120.031H20.875V125.25H31.3125Z" fill="black"/>
<path d="M41.75 130.469V125.25H31.3125V130.469H41.75Z" fill="black"/>
<path d="M52.1875 135.688V130.469H41.75V135.688H52.1875Z" fill="black"/>
<path d="M62.625 140.906V135.688H52.1875V140.906H62.625Z" fill="black"/>
<path d="M73.0625 146.125V140.906H62.625V146.125H73.0625Z" fill="black"/>
<path d="M83.5 151.344V146.125H73.0625V151.344H83.5Z" fill="black"/>
<path d="M93.9375 156.562V151.344H83.5V156.562H93.9375Z" fill="black"/>
<path d="M104.375 161.781V156.562H93.9375V161.781H104.375Z" fill="black"/>
<path d="M114.812 67.8438V161.781H104.375V167H140.906V161.781H146.125V156.562H151.344V151.344H156.562V146.125H161.781V140.906H167V114.812H156.562V109.594H146.125V104.375H130.469V46.9688H125.25V41.75H120.031V36.5312H114.812V31.3125H104.375V26.0938H93.9375V20.875H73.0625V26.0938H67.8438V20.875H62.625V15.6562H57.4062V10.4375H46.9688V5.21875H36.5312V10.4375H46.9688V15.6562H57.4062V20.875H62.625V26.0938H67.8438V31.3125H73.0625V26.0938H93.9375V31.3125H104.375V36.5312H114.812V41.75H120.031V46.9688H125.25V161.781H120.031V67.8438H114.812Z" fill="black"/>
<path d="M109.594 62.625V67.8438H114.812V62.625H109.594Z" fill="black"/>
<path d="M99.1562 57.4062H109.594V62.625H99.1562V57.4062Z" fill="black"/>
<path d="M88.7188 52.1875H99.1562V57.4062H88.7188V52.1875Z" fill="black"/>
<path d="M78.2812 46.9688H88.7188V52.1875H78.2812V46.9688Z" fill="black"/>
<path d="M67.8438 41.75H78.2812V46.9688H67.8438V41.75Z" fill="black"/>
<path d="M57.4062 36.5312H67.8438V41.75H57.4062V36.5312Z" fill="black"/>
<path d="M46.9688 31.3125H57.4062V36.5312H46.9688V31.3125Z" fill="black"/>
<path d="M36.5312 26.0938H46.9688V31.3125H36.5312V26.0938Z" fill="black"/>
<path d="M26.0938 20.875H36.5312V26.0938H26.0938V20.875Z" fill="black"/>
<path d="M26.0938 20.875V15.6562H15.6562V20.875H26.0938Z" fill="black"/>
</g>
<path d="M62.6976 196.609H57.3744V204.438H53.9562V186.224H57.3744V193.791H62.6976V186.224H66.1159V204.438H62.6976V196.609ZM75.6821 204.751C74.4992 204.751 73.4728 204.542 72.603 204.124C71.7332 203.689 71.0113 203.072 70.4372 202.272C69.8806 201.472 69.4631 200.489 69.1847 199.323C68.9238 198.158 68.7933 196.827 68.7933 195.331C68.7933 193.852 68.9238 192.53 69.1847 191.365C69.4631 190.182 69.8806 189.19 70.4372 188.39C71.0113 187.59 71.7332 186.981 72.603 186.563C73.4728 186.128 74.4992 185.911 75.6821 185.911C78.0479 185.911 79.7875 186.737 80.9008 188.39C82.0142 190.042 82.5708 192.356 82.5708 195.331C82.5708 198.305 82.0142 200.619 80.9008 202.272C79.7875 203.924 78.0479 204.751 75.6821 204.751ZM75.6821 201.959C76.2909 201.959 76.8041 201.846 77.2216 201.619C77.6391 201.376 77.9696 201.037 78.2132 200.602C78.4741 200.167 78.6568 199.636 78.7611 199.01C78.8829 198.366 78.9438 197.653 78.9438 196.87V193.765C78.9438 192.2 78.7002 190.964 78.2132 190.06C77.7435 189.155 76.8998 188.703 75.6821 188.703C74.4644 188.703 73.612 189.155 73.1249 190.06C72.6552 190.964 72.4203 192.2 72.4203 193.765V196.896C72.4203 198.462 72.6552 199.697 73.1249 200.602C73.612 201.506 74.4644 201.959 75.6821 201.959ZM94.9291 196.009L95.0856 190.738H94.8508L91.3281 200.106L87.8055 190.738H87.5706L87.7272 196.009V204.438H84.7525V186.224H88.8231L91.3542 192.93H91.5369L94.0941 186.224H97.9038V204.438H94.9291V196.009ZM101.312 204.438V186.224H112.819V189.042H104.73V193.791H112.532V196.609H104.73V201.619H112.819V204.438H101.312Z" fill="black"/>
<defs>
<clipPath id="clip0_263_32948">
<rect width="167" height="167" fill="white"/>
</clipPath>
<clipPath id="clip1_263_32948">
<rect width="62.625" height="62.625" fill="white" transform="matrix(0.866025 0.5 -2.20305e-08 1 28.7031 40.4453)"/>
</clipPath>
</defs>
</svg>
