<svg width="174" height="212" viewBox="0 0 174 212" fill="none" xmlns="http://www.w3.org/2000/svg">
<g clip-path="url(#clip0_213_32511)">
<path fill-rule="evenodd" clip-rule="evenodd" d="M18.918 5.21875V15.6562H8.48047V109.594H13.6992V114.812H24.1367V120.031H34.5742V125.25H45.0117V130.469H55.4492V135.688H65.8867V140.906H76.3242V146.125H86.7617V151.344H97.1992V156.562H107.637V161.781H118.074V67.8438H123.293V161.781H128.512V46.9688H123.293V41.75H118.074V36.5312H107.637V31.3125H97.1992V26.0938H76.3242V31.3125H71.1055V26.0938H65.8867V20.875H60.668V15.6562H50.2305V10.4375H39.793V5.21875H18.918ZM112.855 62.625H118.074V67.8438H112.855V62.625ZM102.418 57.4062H112.855V62.625H102.418V57.4062ZM91.9805 52.1875H102.418V57.4062H91.9805V52.1875ZM81.543 46.9688H91.9805V52.1875H81.543V46.9688ZM71.1055 41.75H81.543V46.9688H71.1055V41.75ZM60.668 36.5312H71.1055V41.75H60.668V36.5312ZM50.2305 31.3125H60.668V36.5312H50.2305V31.3125ZM39.793 26.0938H50.2305V31.3125H39.793V26.0938ZM29.3555 20.875H39.793V26.0938H29.3555V20.875ZM29.3555 20.875V15.6562H18.918V20.875H29.3555Z" fill="#9AFFED"/>
<g clip-path="url(#clip1_213_32511)">
<path d="M72.6404 84.8047L72.6404 79.5859L74.9002 80.8906L74.9002 70.4531L70.3807 67.8437L70.3807 73.0625L68.1209 71.7578L68.1209 82.1953L56.8219 75.6719L56.8219 70.4531L59.0817 71.7578L59.0817 61.3203L54.5622 58.7109L54.5622 63.9297L52.3024 62.625L52.3024 73.0625L36.4839 63.9297L36.4839 69.1484L50.0426 76.9766L50.0426 79.5859L47.7828 78.2812L47.7828 86.1094L36.4839 79.5859L36.4839 84.8047L45.523 90.0234L45.523 95.2422L43.2632 93.9375L43.2632 104.375L47.7828 106.984L47.7828 104.375L47.7828 101.766L50.0426 103.07L50.0426 92.6328L61.3415 99.1562L61.3415 101.766L61.3415 104.375L59.0817 103.07L59.0817 113.508L63.6013 116.117L63.6013 110.898L65.8611 112.203L65.8611 101.766L81.6796 110.898L81.6796 105.68L68.1209 97.8516L68.1209 95.2422L70.3807 96.5469L70.3807 88.7187L81.6796 95.2422L81.6796 90.0234L72.6404 84.8047ZM65.8611 88.7187L63.6013 87.4141L63.6013 95.2422L52.3024 88.7187L52.3024 86.1094L54.5622 87.4141L54.5622 79.5859L65.8611 86.1094L65.8611 88.7187Z" fill="black"/>
</g>
<path d="M13.6992 0H39.793V5.21875H18.918V15.6562H8.48047V109.594H13.6992V114.812H3.26172V10.4375H13.6992V0Z" fill="black"/>
<path d="M24.1367 120.031V114.812H13.6992V120.031H24.1367Z" fill="black"/>
<path d="M34.5742 125.25V120.031H24.1367V125.25H34.5742Z" fill="black"/>
<path d="M45.0117 130.469V125.25H34.5742V130.469H45.0117Z" fill="black"/>
<path d="M55.4492 135.688V130.469H45.0117V135.688H55.4492Z" fill="black"/>
<path d="M65.8867 140.906V135.688H55.4492V140.906H65.8867Z" fill="black"/>
<path d="M76.3242 146.125V140.906H65.8867V146.125H76.3242Z" fill="black"/>
<path d="M86.7617 151.344V146.125H76.3242V151.344H86.7617Z" fill="black"/>
<path d="M97.1992 156.562V151.344H86.7617V156.562H97.1992Z" fill="black"/>
<path d="M107.637 161.781V156.562H97.1992V161.781H107.637Z" fill="black"/>
<path d="M118.074 67.8438V161.781H107.637V167H144.168V161.781H149.387V156.562H154.605V151.344H159.824V146.125H165.043V140.906H170.262V114.812H159.824V109.594H149.387V104.375H133.73V46.9688H128.512V41.75H123.293V36.5312H118.074V31.3125H107.637V26.0938H97.1992V20.875H76.3242V26.0938H71.1055V20.875H65.8867V15.6562H60.668V10.4375H50.2305V5.21875H39.793V10.4375H50.2305V15.6562H60.668V20.875H65.8867V26.0938H71.1055V31.3125H76.3242V26.0938H97.1992V31.3125H107.637V36.5312H118.074V41.75H123.293V46.9688H128.512V161.781H123.293V67.8438H118.074Z" fill="black"/>
<path d="M112.855 62.625V67.8438H118.074V62.625H112.855Z" fill="black"/>
<path d="M102.418 57.4062H112.855V62.625H102.418V57.4062Z" fill="black"/>
<path d="M91.9805 52.1875H102.418V57.4062H91.9805V52.1875Z" fill="black"/>
<path d="M81.543 46.9688H91.9805V52.1875H81.543V46.9688Z" fill="black"/>
<path d="M71.1055 41.75H81.543V46.9688H71.1055V41.75Z" fill="black"/>
<path d="M60.668 36.5312H71.1055V41.75H60.668V36.5312Z" fill="black"/>
<path d="M50.2305 31.3125H60.668V36.5312H50.2305V31.3125Z" fill="black"/>
<path d="M39.793 26.0938H50.2305V31.3125H39.793V26.0938Z" fill="black"/>
<path d="M29.3555 20.875H39.793V26.0938H29.3555V20.875Z" fill="black"/>
<path d="M29.3555 20.875V15.6562H18.918V20.875H29.3555Z" fill="black"/>
</g>
<path d="M10.2326 189.042V204.438H6.84044V189.042H1.36076V186.224H15.7123V189.042H10.2326ZM21.8603 204.438H18.442V186.224H25.3568C27.1312 186.224 28.4881 186.729 29.4274 187.738C30.3668 188.746 30.8365 190.121 30.8365 191.86C30.8365 193.2 30.5234 194.331 29.8971 195.252C29.2883 196.157 28.4098 196.731 27.2617 196.975L31.1496 204.438H27.3921L23.9217 197.366H21.8603V204.438ZM24.6523 194.705C25.5743 194.705 26.2353 194.522 26.6354 194.157C27.0355 193.774 27.2356 193.174 27.2356 192.356V191.365C27.2356 190.547 27.0355 189.955 26.6354 189.59C26.2353 189.207 25.5743 189.016 24.6523 189.016H21.8603V194.705H24.6523ZM43.7166 204.438L42.438 199.819H37.0366L35.7841 204.438H32.3397L37.4541 186.224H42.2032L47.3437 204.438H43.7166ZM39.8547 189.59H39.646L37.6368 197.027H41.864L39.8547 189.59ZM52.5783 191.365H52.3174V204.438H49.3949V186.224H53.596L58.3711 199.297H58.632V186.224H61.5545V204.438H57.3535L52.5783 191.365ZM70.912 204.751C69.3464 204.751 68.0069 204.481 66.8936 203.942C65.7976 203.402 64.9018 202.689 64.2059 201.802L66.2673 199.662C66.9458 200.445 67.6764 201.028 68.4592 201.411C69.2594 201.776 70.1118 201.959 71.0164 201.959C72.0601 201.959 72.8603 201.724 73.417 201.254C73.9737 200.784 74.252 200.106 74.252 199.219C74.252 198.488 74.0433 197.94 73.6258 197.575C73.2083 197.192 72.5037 196.923 71.5122 196.766L69.5812 196.453C67.8938 196.157 66.6935 195.548 65.9803 194.626C65.2671 193.687 64.9104 192.582 64.9104 191.312C64.9104 189.573 65.4758 188.242 66.6065 187.32C67.7373 186.381 69.3029 185.911 71.3034 185.911C72.7299 185.911 73.9563 186.137 74.9826 186.589C76.0264 187.042 76.8614 187.659 77.4876 188.442L75.4784 190.582C74.9913 190.008 74.4086 189.555 73.7301 189.225C73.0517 188.877 72.2515 188.703 71.3295 188.703C69.3464 188.703 68.3548 189.521 68.3548 191.156C68.3548 191.852 68.5636 192.382 68.9811 192.748C69.3986 193.113 70.1118 193.382 71.1208 193.556L73.0256 193.896C74.6086 194.191 75.7828 194.774 76.5483 195.644C77.3137 196.514 77.6964 197.627 77.6964 198.984C77.6964 199.836 77.5485 200.619 77.2528 201.332C76.9571 202.028 76.5222 202.637 75.9481 203.159C75.374 203.663 74.6608 204.055 73.8084 204.333C72.9734 204.611 72.0079 204.751 70.912 204.751ZM90.6548 204.438L89.3762 199.819H83.9748L82.7223 204.438H79.2779L84.3923 186.224H89.1413L94.2818 204.438H90.6548ZM86.7929 189.59H86.5842L84.5749 197.027H88.8021L86.7929 189.59ZM102.883 204.751C100.499 204.751 98.7337 203.933 97.5855 202.298C96.4548 200.663 95.8894 198.34 95.8894 195.331C95.8894 192.339 96.4548 190.025 97.5855 188.39C98.7337 186.737 100.499 185.911 102.883 185.911C103.787 185.911 104.579 186.033 105.257 186.276C105.953 186.52 106.553 186.859 107.058 187.294C107.562 187.711 107.98 188.225 108.31 188.833C108.641 189.425 108.902 190.077 109.093 190.79L105.962 191.678C105.84 191.26 105.701 190.869 105.544 190.503C105.388 190.138 105.188 189.825 104.944 189.564C104.718 189.286 104.431 189.077 104.083 188.938C103.735 188.781 103.317 188.703 102.83 188.703C101.647 188.703 100.795 189.155 100.273 190.06C99.7687 190.964 99.5165 192.2 99.5165 193.765V196.896C99.5165 198.462 99.7687 199.697 100.273 200.602C100.795 201.506 101.647 201.959 102.83 201.959C103.317 201.959 103.735 201.889 104.083 201.75C104.431 201.593 104.718 201.385 104.944 201.124C105.188 200.845 105.388 200.523 105.544 200.158C105.701 199.793 105.84 199.401 105.962 198.984L109.093 199.871C108.902 200.584 108.641 201.245 108.31 201.854C107.98 202.446 107.562 202.959 107.058 203.394C106.553 203.811 105.953 204.142 105.257 204.385C104.579 204.629 103.787 204.751 102.883 204.751ZM119.755 189.042V204.438H116.363V189.042H110.883V186.224H125.235V189.042H119.755ZM127.912 204.438V201.88H132.009V188.781H127.912V186.224H139.498V188.781H135.401V201.88H139.498V204.438H127.912ZM149.351 204.751C148.168 204.751 147.142 204.542 146.272 204.124C145.402 203.689 144.68 203.072 144.106 202.272C143.55 201.472 143.132 200.489 142.854 199.323C142.593 198.158 142.462 196.827 142.462 195.331C142.462 193.852 142.593 192.53 142.854 191.365C143.132 190.182 143.55 189.19 144.106 188.39C144.68 187.59 145.402 186.981 146.272 186.563C147.142 186.128 148.168 185.911 149.351 185.911C151.717 185.911 153.456 186.737 154.57 188.39C155.683 190.042 156.24 192.356 156.24 195.331C156.24 198.305 155.683 200.619 154.57 202.272C153.456 203.924 151.717 204.751 149.351 204.751ZM149.351 201.959C149.96 201.959 150.473 201.846 150.891 201.619C151.308 201.376 151.639 201.037 151.882 200.602C152.143 200.167 152.326 199.636 152.43 199.01C152.552 198.366 152.613 197.653 152.613 196.87V193.765C152.613 192.2 152.369 190.964 151.882 190.06C151.412 189.155 150.569 188.703 149.351 188.703C148.133 188.703 147.281 189.155 146.794 190.06C146.324 190.964 146.089 192.2 146.089 193.765V196.896C146.089 198.462 146.324 199.697 146.794 200.602C147.281 201.506 148.133 201.959 149.351 201.959ZM162.101 191.365H161.84V204.438H158.917V186.224H163.118L167.894 199.297H168.154V186.224H171.077V204.438H166.876L162.101 191.365Z" fill="black"/>
<defs>
<clipPath id="clip0_213_32511">
<rect width="167" height="167" fill="white" transform="translate(3.26172)"/>
</clipPath>
<clipPath id="clip1_213_32511">
<rect width="62.625" height="62.625" fill="white" transform="matrix(0.866025 0.5 -2.20305e-08 1 31.9648 40.4453)"/>
</clipPath>
</defs>
</svg>
