<svg width="167" height="209" viewBox="0 0 167 209" fill="none" xmlns="http://www.w3.org/2000/svg">
<g clip-path="url(#clip0_213_32523)">
<path fill-rule="evenodd" clip-rule="evenodd" d="M15.6562 5.21875V15.6562H5.21875V109.594H10.4375V114.812H20.875V120.031H31.3125V125.25H41.75V130.469H52.1875V135.688H62.625V140.906H73.0625V146.125H83.5V151.344H93.9375V156.562H104.375V161.781H114.812V67.8438H120.031V161.781H125.25V46.9688H120.031V41.75H114.812V36.5312H104.375V31.3125H93.9375V26.0938H73.0625V31.3125H67.8438V26.0938H62.625V20.875H57.4062V15.6562H46.9688V10.4375H36.5312V5.21875H15.6562ZM109.594 62.625H114.812V67.8438H109.594V62.625ZM99.1562 57.4062H109.594V62.625H99.1562V57.4062ZM88.7188 52.1875H99.1562V57.4062H88.7188V52.1875ZM78.2812 46.9688H88.7188V52.1875H78.2812V46.9688ZM67.8438 41.75H78.2812V46.9688H67.8438V41.75ZM57.4062 36.5312H67.8438V41.75H57.4062V36.5312ZM46.9688 31.3125H57.4062V36.5312H46.9688V31.3125ZM36.5312 26.0938H46.9688V31.3125H36.5312V26.0938ZM26.0938 20.875H36.5312V26.0938H26.0938V20.875ZM26.0938 20.875V15.6562H15.6562V20.875H26.0938Z" fill="#3BF906"/>
<g clip-path="url(#clip1_213_32523)">
<path fill-rule="evenodd" clip-rule="evenodd" d="M76.1581 78.2812L76.1581 80.8906L78.4179 82.1953L78.4179 123.945L76.1581 122.641L76.1581 125.25L35.482 101.766L35.482 99.1562L33.2222 97.8516L33.2222 56.1016L35.482 57.4062L35.482 54.7969L44.5211 60.0156L44.5211 57.4062L49.0407 60.0156L49.0407 62.625L62.5994 70.4531L62.5994 67.8437L67.1189 70.4531L67.1189 73.0625L76.1581 78.2812ZM71.6385 114.812L73.8983 116.117L73.8983 84.8047L71.6385 83.5L71.6385 80.8906L67.1189 78.2812L67.1189 80.8906L67.1189 83.5L62.5994 80.8906L62.5994 75.6719L49.0407 67.8437L49.0407 73.0625L44.5211 70.4531L44.5211 65.2344L40.0015 62.625L40.0015 65.2344L37.7417 63.9297L37.7417 95.2422L40.0015 96.5469L40.0015 99.1562L71.6385 117.422L71.6385 114.812ZM62.5993 88.7187L67.1189 91.3281L67.1189 96.5469L62.5993 93.9375L62.5993 88.7187ZM58.0797 86.1094L53.5601 83.5L53.5601 88.7187L58.0797 91.3281L58.0797 86.1094ZM49.0405 80.8906L44.521 78.2812L44.521 83.5L49.0405 86.1094L49.0405 80.8906ZM49.0405 91.3281L44.521 88.7187L44.521 93.9375L49.0405 96.5469L49.0405 91.3281ZM53.5601 93.9375L58.0797 96.5469L58.0797 101.766L53.5601 99.1562L53.5601 93.9375ZM67.1189 101.766L62.5993 99.1562L62.5993 104.375L67.1189 106.984L67.1189 101.766Z" fill="black"/>
</g>
<path d="M10.4375 0H36.5312V5.21875H15.6562V15.6562H5.21875V109.594H10.4375V114.812H0V10.4375H10.4375V0Z" fill="black"/>
<path d="M20.875 120.031V114.812H10.4375V120.031H20.875Z" fill="black"/>
<path d="M31.3125 125.25V120.031H20.875V125.25H31.3125Z" fill="black"/>
<path d="M41.75 130.469V125.25H31.3125V130.469H41.75Z" fill="black"/>
<path d="M52.1875 135.688V130.469H41.75V135.688H52.1875Z" fill="black"/>
<path d="M62.625 140.906V135.688H52.1875V140.906H62.625Z" fill="black"/>
<path d="M73.0625 146.125V140.906H62.625V146.125H73.0625Z" fill="black"/>
<path d="M83.5 151.344V146.125H73.0625V151.344H83.5Z" fill="black"/>
<path d="M93.9375 156.562V151.344H83.5V156.562H93.9375Z" fill="black"/>
<path d="M104.375 161.781V156.562H93.9375V161.781H104.375Z" fill="black"/>
<path d="M114.812 67.8438V161.781H104.375V167H140.906V161.781H146.125V156.562H151.344V151.344H156.562V146.125H161.781V140.906H167V114.812H156.562V109.594H146.125V104.375H130.469V46.9688H125.25V41.75H120.031V36.5312H114.812V31.3125H104.375V26.0938H93.9375V20.875H73.0625V26.0938H67.8438V20.875H62.625V15.6562H57.4062V10.4375H46.9688V5.21875H36.5312V10.4375H46.9688V15.6562H57.4062V20.875H62.625V26.0938H67.8438V31.3125H73.0625V26.0938H93.9375V31.3125H104.375V36.5312H114.812V41.75H120.031V46.9688H125.25V161.781H120.031V67.8438H114.812Z" fill="black"/>
<path d="M109.594 62.625V67.8438H114.812V62.625H109.594Z" fill="black"/>
<path d="M99.1562 57.4062H109.594V62.625H99.1562V57.4062Z" fill="black"/>
<path d="M88.7188 52.1875H99.1562V57.4062H88.7188V52.1875Z" fill="black"/>
<path d="M78.2812 46.9688H88.7188V52.1875H78.2812V46.9688Z" fill="black"/>
<path d="M67.8438 41.75H78.2812V46.9688H67.8438V41.75Z" fill="black"/>
<path d="M57.4062 36.5312H67.8438V41.75H57.4062V36.5312Z" fill="black"/>
<path d="M46.9688 31.3125H57.4062V36.5312H46.9688V31.3125Z" fill="black"/>
<path d="M36.5312 26.0938H46.9688V31.3125H36.5312V26.0938Z" fill="black"/>
<path d="M26.0938 20.875H36.5312V26.0938H26.0938V20.875Z" fill="black"/>
<path d="M26.0938 20.875V15.6562H15.6562V20.875H26.0938Z" fill="black"/>
</g>
<path d="M29.2136 202.751C26.8304 202.751 25.0647 201.933 23.9166 200.298C22.7858 198.663 22.2205 196.34 22.2205 193.331C22.2205 190.339 22.7858 188.025 23.9166 186.39C25.0647 184.737 26.8304 183.911 29.2136 183.911C30.1182 183.911 30.9097 184.033 31.5881 184.276C32.284 184.52 32.8841 184.859 33.3886 185.294C33.8931 185.711 34.3106 186.225 34.6411 186.833C34.9716 187.425 35.2325 188.077 35.4239 188.79L32.2926 189.678C32.1709 189.26 32.0317 188.869 31.8751 188.503C31.7186 188.138 31.5185 187.825 31.275 187.564C31.0488 187.286 30.7618 187.077 30.4139 186.938C30.066 186.781 29.6485 186.703 29.1614 186.703C27.9785 186.703 27.1261 187.155 26.6042 188.06C26.0997 188.964 25.8475 190.2 25.8475 191.765V194.896C25.8475 196.462 26.0997 197.697 26.6042 198.602C27.1261 199.506 27.9785 199.959 29.1614 199.959C29.6485 199.959 30.066 199.889 30.4139 199.75C30.7618 199.593 31.0488 199.385 31.275 199.124C31.5185 198.845 31.7186 198.523 31.8751 198.158C32.0317 197.793 32.1709 197.401 32.2926 196.984L35.4239 197.871C35.2325 198.584 34.9716 199.245 34.6411 199.854C34.3106 200.446 33.8931 200.959 33.3886 201.394C32.8841 201.811 32.284 202.142 31.5881 202.385C30.9097 202.629 30.1182 202.751 29.2136 202.751ZM48.2779 202.438L46.9993 197.819H41.5979L40.3454 202.438H36.9011L42.0154 184.224H46.7645L51.905 202.438H48.2779ZM44.4161 187.59H44.2073L42.1981 195.027H46.4253L44.4161 187.59ZM54.8173 202.438V184.224H58.2355V199.619H66.2985V202.438H54.8173ZM70.0197 202.438V184.224H81.5271V187.042H73.438V191.791H81.24V194.609H73.438V199.619H81.5271V202.438H70.0197ZM88.4317 189.365H88.1708V202.438H85.2483V184.224H89.4494L94.2245 197.297H94.4855V184.224H97.408V202.438H93.2069L88.4317 189.365ZM101.051 184.224H106.713C109.079 184.224 110.836 185.007 111.984 186.573C113.15 188.138 113.732 190.391 113.732 193.331C113.732 196.288 113.15 198.55 111.984 200.115C110.836 201.663 109.079 202.438 106.713 202.438H101.051V184.224ZM106.478 199.698C107.731 199.698 108.653 199.289 109.244 198.471C109.853 197.654 110.158 196.462 110.158 194.896V191.739C110.158 190.191 109.853 189.008 109.244 188.19C108.653 187.373 107.731 186.964 106.478 186.964H104.417V199.698H106.478ZM116.958 202.438V184.224H128.465V187.042H120.376V191.791H128.178V194.609H120.376V199.619H128.465V202.438H116.958ZM135.944 202.438H132.526V184.224H139.441C141.215 184.224 142.572 184.729 143.511 185.738C144.451 186.746 144.92 188.121 144.92 189.86C144.92 191.2 144.607 192.331 143.981 193.252C143.372 194.157 142.493 194.731 141.345 194.975L145.233 202.438H141.476L138.005 195.366H135.944V202.438ZM138.736 192.705C139.658 192.705 140.319 192.522 140.719 192.157C141.119 191.774 141.319 191.174 141.319 190.356V189.365C141.319 188.547 141.119 187.955 140.719 187.59C140.319 187.207 139.658 187.016 138.736 187.016H135.944V192.705H138.736Z" fill="black"/>
<defs>
<clipPath id="clip0_213_32523">
<rect width="167" height="167" fill="white"/>
</clipPath>
<clipPath id="clip1_213_32523">
<rect width="62.625" height="62.625" fill="white" transform="matrix(0.866025 0.5 -2.20305e-08 1 28.7031 40.4453)"/>
</clipPath>
</defs>
</svg>
