<svg width="165" height="206" viewBox="0 0 165 206" fill="none" xmlns="http://www.w3.org/2000/svg">
<g clip-path="url(#clip0_320_31925)">
<path fill-rule="evenodd" clip-rule="evenodd" d="M15.4381 5.14575V15.4374H5.14648V108.062H10.2923V113.208H20.5839V118.353H30.8755V123.499H41.1671V128.645H51.4587V133.791H61.7503V138.937H72.0419V144.082H82.3335V149.228H92.6251V154.374H102.917V159.52H113.208V66.8953H118.354V159.52H123.5V46.3121H118.354V41.1663H113.208V36.0205H102.917V30.8748H92.6251V25.729H72.0419V30.8748H66.8961V25.729H61.7503V20.5832H56.6045V15.4374H46.3129V10.2916H36.0213V5.14575H15.4381ZM108.062 61.7495H113.208V66.8953H108.062V61.7495ZM97.7709 56.6037H108.062V61.7495H97.7709V56.6037ZM87.4793 51.4579H97.7709V56.6037H87.4793V51.4579ZM77.1877 46.3121H87.4793V51.4579H77.1877V46.3121ZM66.8961 41.1663H77.1877V46.3121H66.8961V41.1663ZM56.6045 36.0205H66.8961V41.1663H56.6045V36.0205ZM46.3129 30.8748H56.6045V36.0205H46.3129V30.8748ZM36.0213 25.729H46.3129V30.8748H36.0213V25.729ZM25.7297 20.5832H36.0213V25.729H25.7297V20.5832ZM25.7297 20.5832V15.4374H15.4381V20.5832H25.7297Z" fill="#FFA1DA"/>
<path d="M10.2916 0.00012207H36.0206V5.14592H15.4374V15.4375H5.1458V108.062H10.2916V113.208H0V10.2917H10.2916V0.00012207Z" fill="black"/>
<path d="M20.5832 118.354V113.208H10.2916V118.354H20.5832Z" fill="black"/>
<path d="M30.8748 123.499V118.354H20.5832V123.499H30.8748Z" fill="black"/>
<path d="M41.1664 128.645V123.499H30.8748V128.645H41.1664Z" fill="black"/>
<path d="M51.458 133.791V128.645H41.1664V133.791H51.458Z" fill="black"/>
<path d="M61.7496 138.937V133.791H51.458V138.937H61.7496Z" fill="black"/>
<path d="M72.0412 144.083V138.937H61.7496V144.083H72.0412Z" fill="black"/>
<path d="M82.3328 149.228V144.083H72.0412V149.228H82.3328Z" fill="black"/>
<path d="M92.6244 154.374V149.228H82.3328V154.374H92.6244Z" fill="black"/>
<path d="M102.916 159.52V154.374H92.6244V159.52H102.916Z" fill="black"/>
<path d="M113.208 66.8955V159.52H102.916V164.666H138.937V159.52H144.082V154.374H149.228V149.228H154.374V144.083H159.52V138.937H164.666V113.208H154.374V108.062H144.082V102.916H128.645V46.3123H123.499V41.1665H118.353V36.0207H113.208V30.8749H102.916V25.7291H92.6244V20.5833H72.0412V25.7291H66.8954V20.5833H61.7496V15.4375H56.6038V10.2917H46.3122V5.14592H36.0206V10.2917H46.3122V15.4375H56.6038V20.5833H61.7496V25.7291H66.8954V30.8749H72.0412V25.7291H92.6244V30.8749H102.916V36.0207H113.208V41.1665H118.353V46.3123H123.499V159.52H118.353V66.8955H113.208Z" fill="black"/>
<path d="M108.062 61.7497V66.8955H113.208V61.7497H108.062Z" fill="black"/>
<path d="M97.7702 56.6039H108.062V61.7497H97.7702V56.6039Z" fill="black"/>
<path d="M87.4786 51.4581H97.7702V56.6039H87.4786V51.4581Z" fill="black"/>
<path d="M77.187 46.3123H87.4786V51.4581H77.187V46.3123Z" fill="black"/>
<path d="M66.8954 41.1665H77.187V46.3123H66.8954V41.1665Z" fill="black"/>
<path d="M56.6038 36.0207H66.8954V41.1665H56.6038V36.0207Z" fill="black"/>
<path d="M46.3122 30.8749H56.6038V36.0207H46.3122V30.8749Z" fill="black"/>
<path d="M36.0206 25.7291H46.3122V30.8749H36.0206V25.7291Z" fill="black"/>
<path d="M25.729 20.5833H36.0206V25.7291H25.729V20.5833Z" fill="black"/>
<path d="M25.729 20.5833V15.4375H15.4374V20.5833H25.729Z" fill="black"/>
<path d="M74.8676 76.8972L74.8676 74.2878L34.1914 50.8035L34.1914 53.4128L31.9316 52.1082L31.9316 93.8582L34.1914 95.1628L34.1914 97.7722L74.8676 121.257L74.8676 118.647L77.1273 119.952L77.1273 78.2019L74.8676 76.8972ZM72.6078 83.4207L70.348 82.116L70.348 84.7253L65.8284 82.116L65.8284 84.7253L61.3088 82.116L61.3088 84.7253L56.7893 82.116L56.7893 84.7253L52.2697 82.116L52.2697 79.5066L47.7501 76.8972L47.7501 74.2878L43.2306 71.6785L43.2306 69.0691L38.711 66.4597L38.711 63.8503L36.4512 62.5457L36.4512 59.9363L38.711 61.241L38.711 58.6316L70.348 76.8972L70.348 79.5066L72.6078 80.8113L72.6078 83.4207ZM72.6078 112.124L70.348 110.819L70.348 113.428L38.711 95.1628L38.711 92.5535L36.4512 91.2488L36.4512 70.3738L38.711 71.6785L38.711 74.2878L43.2306 76.8972L43.2306 79.5066L47.7501 82.116L47.7501 84.7253L50.0099 86.03L50.0099 88.6394L59.0491 93.8582L59.0491 91.2488L61.3088 92.5535L61.3088 89.9441L65.8284 92.5535L65.8284 89.9441L70.348 92.5535L70.348 89.9441L72.6078 91.2488L72.6078 112.124Z" fill="black"/>
</g>
<path d="M37.7235 199.957L36.5142 181.998H39.4216L39.9876 192.341L40.2192 196.612H40.4507L42.2518 186.141H45.3907L47.1917 196.612H47.4233L47.6548 192.341L48.2209 181.998H51.0253L49.8161 199.957H45.4679L43.8727 189.794H43.6668L42.0717 199.957H37.7235ZM63.0307 199.957L61.77 195.403H56.4441L55.2091 199.957H51.8129L56.8558 181.998H61.5385L66.6071 199.957H63.0307ZM59.2228 185.317H59.017L57.0359 192.65H61.204L59.2228 185.317ZM69.4787 199.957V181.998H72.8492V197.178H80.7994V199.957H69.4787ZM84.906 199.957V181.998H88.2765V197.178H96.2268V199.957H84.906ZM99.896 199.957V181.998H111.242V184.777H103.266V189.46H110.959V192.238H103.266V197.178H111.242V199.957H99.896ZM122.579 184.777V199.957H119.234V184.777H113.831V181.998H127.982V184.777H122.579Z" fill="black"/>
<defs>
<clipPath id="clip0_320_31925">
<rect width="164.666" height="164.666" fill="white"/>
</clipPath>
</defs>
</svg>
