<svg width="167" height="212" viewBox="0 0 167 212" fill="none" xmlns="http://www.w3.org/2000/svg">
<g clip-path="url(#clip0_213_32517)">
<path fill-rule="evenodd" clip-rule="evenodd" d="M15.6562 5.21875V15.6562H5.21875V109.594H10.4375V114.812H20.875V120.031H31.3125V125.25H41.75V130.469H52.1875V135.688H62.625V140.906H73.0625V146.125H83.5V151.344H93.9375V156.562H104.375V161.781H114.812V67.8438H120.031V161.781H125.25V46.9688H120.031V41.75H114.812V36.5312H104.375V31.3125H93.9375V26.0938H73.0625V31.3125H67.8438V26.0938H62.625V20.875H57.4062V15.6562H46.9688V10.4375H36.5312V5.21875H15.6562ZM109.594 62.625H114.812V67.8438H109.594V62.625ZM99.1562 57.4062H109.594V62.625H99.1562V57.4062ZM88.7188 52.1875H99.1562V57.4062H88.7188V52.1875ZM78.2812 46.9688H88.7188V52.1875H78.2812V46.9688ZM67.8438 41.75H78.2812V46.9688H67.8438V41.75ZM57.4062 36.5312H67.8438V41.75H57.4062V36.5312ZM46.9688 31.3125H57.4062V36.5312H46.9688V31.3125ZM36.5312 26.0938H46.9688V31.3125H36.5312V26.0938ZM26.0938 20.875H36.5312V26.0938H26.0938V20.875ZM26.0938 20.875V15.6562H15.6562V20.875H26.0938Z" fill="#FF4242"/>
<g clip-path="url(#clip1_213_32517)">
<path d="M76.1581 88.7187L76.1581 86.1094L71.6385 83.5L71.6385 70.4531L40.0015 52.1875L40.0015 65.2344L35.482 62.625L35.482 65.2344L33.2222 63.9297L33.2222 90.0234L35.482 91.3281L35.482 93.9375L42.2613 97.8516L42.2613 105.68L69.3787 121.336L69.3787 113.508L76.1581 117.422L76.1581 114.812L78.4179 116.117L78.4179 90.0234L76.1581 88.7187ZM73.8983 108.289L71.6385 106.984L71.6385 109.594L69.3787 108.289L69.3787 95.2422L42.2613 79.5859L42.2613 92.6328L40.0015 91.3281L40.0015 88.7187L37.7417 87.4141L37.7417 71.7578L40.0015 73.0625L40.0015 70.4531L71.6385 88.7187L71.6385 91.3281L73.8983 92.6328L73.8983 108.289ZM64.8592 113.508L46.7809 103.07L46.7809 87.4141L64.8592 97.8516L64.8592 113.508ZM44.5211 60.0156L67.1189 73.0625L67.1189 80.8906L44.5211 67.8437L44.5211 60.0156Z" fill="black"/>
</g>
<path d="M10.4375 0H36.5312V5.21875H15.6562V15.6562H5.21875V109.594H10.4375V114.812H0V10.4375H10.4375V0Z" fill="black"/>
<path d="M20.875 120.031V114.812H10.4375V120.031H20.875Z" fill="black"/>
<path d="M31.3125 125.25V120.031H20.875V125.25H31.3125Z" fill="black"/>
<path d="M41.75 130.469V125.25H31.3125V130.469H41.75Z" fill="black"/>
<path d="M52.1875 135.688V130.469H41.75V135.688H52.1875Z" fill="black"/>
<path d="M62.625 140.906V135.688H52.1875V140.906H62.625Z" fill="black"/>
<path d="M73.0625 146.125V140.906H62.625V146.125H73.0625Z" fill="black"/>
<path d="M83.5 151.344V146.125H73.0625V151.344H83.5Z" fill="black"/>
<path d="M93.9375 156.562V151.344H83.5V156.562H93.9375Z" fill="black"/>
<path d="M104.375 161.781V156.562H93.9375V161.781H104.375Z" fill="black"/>
<path d="M114.812 67.8438V161.781H104.375V167H140.906V161.781H146.125V156.562H151.344V151.344H156.562V146.125H161.781V140.906H167V114.812H156.562V109.594H146.125V104.375H130.469V46.9688H125.25V41.75H120.031V36.5312H114.812V31.3125H104.375V26.0938H93.9375V20.875H73.0625V26.0938H67.8438V20.875H62.625V15.6562H57.4062V10.4375H46.9688V5.21875H36.5312V10.4375H46.9688V15.6562H57.4062V20.875H62.625V26.0938H67.8438V31.3125H73.0625V26.0938H93.9375V31.3125H104.375V36.5312H114.812V41.75H120.031V46.9688H125.25V161.781H120.031V67.8438H114.812Z" fill="black"/>
<path d="M109.594 62.625V67.8438H114.812V62.625H109.594Z" fill="black"/>
<path d="M99.1562 57.4062H109.594V62.625H99.1562V57.4062Z" fill="black"/>
<path d="M88.7188 52.1875H99.1562V57.4062H88.7188V52.1875Z" fill="black"/>
<path d="M78.2812 46.9688H88.7188V52.1875H78.2812V46.9688Z" fill="black"/>
<path d="M67.8438 41.75H78.2812V46.9688H67.8438V41.75Z" fill="black"/>
<path d="M57.4062 36.5312H67.8438V41.75H57.4062V36.5312Z" fill="black"/>
<path d="M46.9688 31.3125H57.4062V36.5312H46.9688V31.3125Z" fill="black"/>
<path d="M36.5312 26.0938H46.9688V31.3125H36.5312V26.0938Z" fill="black"/>
<path d="M26.0938 20.875H36.5312V26.0938H26.0938V20.875Z" fill="black"/>
<path d="M26.0938 20.875V15.6562H15.6562V20.875H26.0938Z" fill="black"/>
</g>
<path d="M34.2446 204.438H30.8263V186.224H37.7411C39.5155 186.224 40.8724 186.729 41.8118 187.738C42.7511 188.746 43.2208 190.121 43.2208 191.86C43.2208 193.2 42.9077 194.331 42.2815 195.252C41.6726 196.157 40.7941 196.731 39.646 196.975L43.534 204.438H39.7765L36.306 197.366H34.2446V204.438ZM37.0366 194.705C37.9586 194.705 38.6196 194.522 39.0197 194.157C39.4198 193.774 39.6199 193.174 39.6199 192.356V191.365C39.6199 190.547 39.4198 189.955 39.0197 189.59C38.6196 189.207 37.9586 189.016 37.0366 189.016H34.2446V194.705H37.0366ZM46.5506 204.438V186.224H58.058V189.042H49.9689V193.791H57.771V196.609H49.9689V201.619H58.058V204.438H46.5506ZM62.1184 204.438V186.224H69.0333C70.8076 186.224 72.1645 186.729 73.1039 187.738C74.0433 188.746 74.5129 190.121 74.5129 191.86C74.5129 193.6 74.0433 194.974 73.1039 195.983C72.1645 196.992 70.8076 197.497 69.0333 197.497H65.5367V204.438H62.1184ZM65.5367 194.705H68.3287C69.2507 194.705 69.9117 194.522 70.3119 194.157C70.712 193.774 70.912 193.174 70.912 192.356V191.365C70.912 190.547 70.712 189.955 70.3119 189.59C69.9117 189.207 69.2507 189.016 68.3287 189.016H65.5367V194.705ZM83.5051 204.751C82.3222 204.751 81.2958 204.542 80.426 204.124C79.5562 203.689 78.8343 203.072 78.2603 202.272C77.7036 201.472 77.2861 200.489 77.0078 199.323C76.7468 198.158 76.6163 196.827 76.6163 195.331C76.6163 193.852 76.7468 192.53 77.0078 191.365C77.2861 190.182 77.7036 189.19 78.2603 188.39C78.8343 187.59 79.5562 186.981 80.426 186.563C81.2958 186.128 82.3222 185.911 83.5051 185.911C85.8709 185.911 87.6105 186.737 88.7238 188.39C89.8372 190.042 90.3938 192.356 90.3938 195.331C90.3938 198.305 89.8372 200.619 88.7238 202.272C87.6105 203.924 85.8709 204.751 83.5051 204.751ZM83.5051 201.959C84.114 201.959 84.6271 201.846 85.0446 201.619C85.4621 201.376 85.7926 201.037 86.0362 200.602C86.2971 200.167 86.4798 199.636 86.5842 199.01C86.7059 198.366 86.7668 197.653 86.7668 196.87V193.765C86.7668 192.2 86.5233 190.964 86.0362 190.06C85.5665 189.155 84.7228 188.703 83.5051 188.703C82.2874 188.703 81.435 189.155 80.9479 190.06C80.4782 190.964 80.2434 192.2 80.2434 193.765V196.896C80.2434 198.462 80.4782 199.697 80.9479 200.602C81.435 201.506 82.2874 201.959 83.5051 201.959ZM96.8288 204.438H93.4105V186.224H100.325C102.1 186.224 103.457 186.729 104.396 187.738C105.335 188.746 105.805 190.121 105.805 191.86C105.805 193.2 105.492 194.331 104.866 195.252C104.257 196.157 103.378 196.731 102.23 196.975L106.118 204.438H102.361L98.8902 197.366H96.8288V204.438ZM99.6208 194.705C100.543 194.705 101.204 194.522 101.604 194.157C102.004 193.774 102.204 193.174 102.204 192.356V191.365C102.204 190.547 102.004 189.955 101.604 189.59C101.204 189.207 100.543 189.016 99.6208 189.016H96.8288V194.705H99.6208ZM116.493 189.042V204.438H113.101V189.042H107.621V186.224H121.973V189.042H116.493ZM130.235 204.751C128.669 204.751 127.329 204.481 126.216 203.942C125.12 203.402 124.224 202.689 123.528 201.802L125.59 199.662C126.268 200.445 126.999 201.028 127.782 201.411C128.582 201.776 129.434 201.959 130.339 201.959C131.383 201.959 132.183 201.724 132.74 201.254C133.296 200.784 133.575 200.106 133.575 199.219C133.575 198.488 133.366 197.94 132.948 197.575C132.531 197.192 131.826 196.923 130.835 196.766L128.904 196.453C127.216 196.157 126.016 195.548 125.303 194.626C124.59 193.687 124.233 192.582 124.233 191.312C124.233 189.573 124.798 188.242 125.929 187.32C127.06 186.381 128.625 185.911 130.626 185.911C132.052 185.911 133.279 186.137 134.305 186.589C135.349 187.042 136.184 187.659 136.81 188.442L134.801 190.582C134.314 190.008 133.731 189.555 133.053 189.225C132.374 188.877 131.574 188.703 130.652 188.703C128.669 188.703 127.677 189.521 127.677 191.156C127.677 191.852 127.886 192.382 128.304 192.748C128.721 193.113 129.434 193.382 130.443 193.556L132.348 193.896C133.931 194.191 135.105 194.774 135.871 195.644C136.636 196.514 137.019 197.627 137.019 198.984C137.019 199.836 136.871 200.619 136.575 201.332C136.28 202.028 135.845 202.637 135.271 203.159C134.697 203.663 133.983 204.055 133.131 204.333C132.296 204.611 131.33 204.751 130.235 204.751Z" fill="black"/>
<defs>
<clipPath id="clip0_213_32517">
<rect width="167" height="167" fill="white"/>
</clipPath>
<clipPath id="clip1_213_32517">
<rect width="62.625" height="62.625" fill="white" transform="matrix(0.866025 0.5 -2.20305e-08 1 28.7031 40.4453)"/>
</clipPath>
</defs>
</svg>
