<svg width="858" height="685" viewBox="0 0 858 685" fill="none" xmlns="http://www.w3.org/2000/svg">
<g filter="url(#filter0_d_287_31940)">
<path d="M0 0H837V661H0V0Z" fill="#FFF7B3"/>
<path d="M3.74926 3.74926H833.251V657.251H3.74926V3.74926Z" stroke="black" stroke-width="7.49852"/>
</g>
<rect width="837" height="46" fill="black"/>
<path d="M16 23C16 19.134 19.134 16 23 16C26.866 16 30 19.134 30 23C30 26.866 26.866 30 23 30C19.134 30 16 26.866 16 23Z" stroke="white" stroke-width="2"/>
<path d="M38 23C38 19.134 41.134 16 45 16C48.866 16 52 19.134 52 23C52 26.866 48.866 30 45 30C41.134 30 38 26.866 38 23Z" stroke="white" stroke-width="2"/>
<path d="M60 23C60 19.134 63.134 16 67 16C70.866 16 74 19.134 74 23C74 26.866 70.866 30 67 30C63.134 30 60 26.866 60 23Z" stroke="white" stroke-width="2"/>
<path d="M291.77 9.6H298.938L308.058 32H302.65L300.762 27.232H289.946L288.026 32H282.586L291.77 9.6ZM291.674 22.656H299.002L296.922 17.568L295.418 13.6H295.258L293.754 17.568L291.674 22.656ZM322.695 9.6C326.364 9.6 329.212 10.6133 331.239 12.64C333.287 14.6453 334.311 17.3653 334.311 20.8C334.311 24.256 333.287 26.9867 331.239 28.992C329.191 30.9973 326.343 32 322.695 32H310.887V9.6H322.695ZM316.103 14.368V27.2H322.567C324.977 27.2 326.641 26.7413 327.559 25.824C328.497 24.8853 328.967 23.2107 328.967 20.8C328.967 18.3893 328.497 16.7147 327.559 15.776C326.641 14.8373 324.977 14.368 322.567 14.368H316.103ZM349.695 9.6C353.364 9.6 356.212 10.6133 358.239 12.64C360.287 14.6453 361.311 17.3653 361.311 20.8C361.311 24.256 360.287 26.9867 358.239 28.992C356.191 30.9973 353.343 32 349.695 32H337.887V9.6H349.695ZM343.103 14.368V27.2H349.567C351.977 27.2 353.641 26.7413 354.559 25.824C355.497 24.8853 355.967 23.2107 355.967 20.8C355.967 18.3893 355.497 16.7147 354.559 15.776C353.641 14.8373 351.977 14.368 349.567 14.368H343.103ZM374.293 9.6H391.477V14.368H379.413V18.144H390.421V22.752H379.413V27.232H391.477V32H374.293V9.6ZM393.327 32L401.775 20.768L393.551 9.6H399.727L405.263 17.216L410.895 9.6H417.071L408.847 20.736L417.231 32H410.959L405.359 24.032L399.631 32H393.327ZM430.932 9.6C433.705 9.6 435.807 10.2293 437.236 11.488C438.665 12.7253 439.38 14.528 439.38 16.896C439.38 19.2 438.676 21.024 437.268 22.368C435.86 23.712 433.748 24.384 430.932 24.384H424.884V32H419.668V9.6H430.932ZM424.884 14.08V19.904H430.964C432.031 19.904 432.799 19.6693 433.268 19.2C433.759 18.7307 434.004 17.9627 434.004 16.896C434.004 15.872 433.759 15.1467 433.268 14.72C432.777 14.2933 432.009 14.08 430.964 14.08H424.884ZM442.418 9.6H459.602V14.368H447.538V18.144H458.546V22.752H447.538V27.232H459.602V32H442.418V9.6ZM470.956 9.6L479.884 22.048L481.996 25.056H482.124L482.092 22.112V9.6H487.276V32H480.62L471.436 19.072L469.292 16H469.164L469.196 19.072V32H464.012V9.6H470.956ZM495.91 23.936C496.123 25.3653 496.71 26.3893 497.67 27.008C498.651 27.6267 500.027 27.936 501.798 27.936C503.355 27.936 504.518 27.7653 505.286 27.424C506.054 27.0827 506.438 26.5387 506.438 25.792C506.438 25.7707 506.438 25.7493 506.438 25.728C506.416 25.0667 506.139 24.5973 505.606 24.32C505.094 24.0427 504.091 23.776 502.598 23.52L497.926 22.72C495.92 22.3787 494.31 21.632 493.094 20.48C491.878 19.328 491.248 17.8453 491.206 16.032C491.206 16.0107 491.206 15.9893 491.206 15.968C491.206 13.856 492.102 12.2133 493.894 11.04C495.707 9.86667 497.979 9.28 500.71 9.28C506.918 9.28 510.31 11.52 510.886 16L506.086 17.344C505.958 15.936 505.467 14.9867 504.614 14.496C503.782 14.0053 502.491 13.76 500.742 13.76C497.883 13.76 496.454 14.4747 496.454 15.904C496.475 16.608 496.763 17.1093 497.318 17.408C497.894 17.6853 498.971 17.9413 500.55 18.176L504.742 18.816C506.811 19.136 508.464 19.84 509.702 20.928C510.939 22.016 511.568 23.392 511.59 25.056C511.59 25.0987 511.59 25.152 511.59 25.216C511.59 27.4347 510.672 29.1733 508.838 30.432C507.024 31.6907 504.667 32.32 501.766 32.32C498.63 32.32 496.112 31.7333 494.214 30.56C492.315 29.3653 491.152 27.5947 490.726 25.248L495.91 23.936ZM514.949 9.6H532.133V14.368H520.069V18.144H531.077V22.752H520.069V27.232H532.133V32H514.949V9.6ZM540.191 23.936C540.404 25.3653 540.991 26.3893 541.951 27.008C542.932 27.6267 544.308 27.936 546.079 27.936C547.636 27.936 548.799 27.7653 549.567 27.424C550.335 27.0827 550.719 26.5387 550.719 25.792C550.719 25.7707 550.719 25.7493 550.719 25.728C550.698 25.0667 550.42 24.5973 549.887 24.32C549.375 24.0427 548.372 23.776 546.879 23.52L542.207 22.72C540.202 22.3787 538.591 21.632 537.375 20.48C536.159 19.328 535.53 17.8453 535.487 16.032C535.487 16.0107 535.487 15.9893 535.487 15.968C535.487 13.856 536.383 12.2133 538.175 11.04C539.988 9.86667 542.26 9.28 544.991 9.28C551.199 9.28 554.591 11.52 555.167 16L550.367 17.344C550.239 15.936 549.748 14.9867 548.895 14.496C548.063 14.0053 546.772 13.76 545.023 13.76C542.164 13.76 540.735 14.4747 540.735 15.904C540.756 16.608 541.044 17.1093 541.599 17.408C542.175 17.6853 543.252 17.9413 544.831 18.176L549.023 18.816C551.092 19.136 552.746 19.84 553.983 20.928C555.22 22.016 555.85 23.392 555.871 25.056C555.871 25.0987 555.871 25.152 555.871 25.216C555.871 27.4347 554.954 29.1733 553.119 30.432C551.306 31.6907 548.948 32.32 546.047 32.32C542.911 32.32 540.394 31.7333 538.495 30.56C536.596 29.3653 535.434 27.5947 535.007 25.248L540.191 23.936Z" fill="white"/>
<path fill-rule="evenodd" clip-rule="evenodd" d="M815 15H813V31H815V15ZM810 21H808V31H810V21ZM803 25H805V31H803V25Z" fill="white"/>
<defs>
<filter id="filter0_d_287_31940" x="0" y="0" width="857.353" height="684.567" filterUnits="userSpaceOnUse" color-interpolation-filters="sRGB">
<feFlood flood-opacity="0" result="BackgroundImageFix"/>
<feColorMatrix in="SourceAlpha" type="matrix" values="0 0 0 0 0 0 0 0 0 0 0 0 0 0 0 0 0 0 127 0" result="hardAlpha"/>
<feOffset dx="20.3531" dy="23.5668"/>
<feComposite in2="hardAlpha" operator="out"/>
<feColorMatrix type="matrix" values="0 0 0 0 0 0 0 0 0 0 0 0 0 0 0 0 0 0 1 0"/>
<feBlend mode="normal" in2="BackgroundImageFix" result="effect1_dropShadow_287_31940"/>
<feBlend mode="normal" in="SourceGraphic" in2="effect1_dropShadow_287_31940" result="shape"/>
</filter>
</defs>
</svg>
