<svg width="1267" height="821" viewBox="0 0 1267 821" fill="none" xmlns="http://www.w3.org/2000/svg">
<g filter="url(#filter0_d_287_32020)">
<rect width="1244.13" height="794" fill="white"/>
<rect x="4.17895" y="4.17895" width="1235.77" height="785.642" stroke="black" stroke-width="8.35789"/>
</g>
<rect width="1244" height="70" transform="translate(0 7)" fill="black"/>
<path d="M16 42C16 38.134 19.134 35 23 35C26.866 35 30 38.134 30 42C30 45.866 26.866 49 23 49C19.134 49 16 45.866 16 42Z" stroke="white" stroke-width="2"/>
<path d="M38 42C38 38.134 41.134 35 45 35C48.866 35 52 38.134 52 42C52 45.866 48.866 49 45 49C41.134 49 38 45.866 38 42Z" stroke="white" stroke-width="2"/>
<path d="M60 42C60 38.134 63.134 35 67 35C70.866 35 74 38.134 74 42C74 45.866 70.866 49 67 49C63.134 49 60 45.866 60 42Z" stroke="white" stroke-width="2"/>
<path d="M494.346 28.48C497.252 25.8933 501.239 24.6 506.306 24.6C510.492 24.6 513.852 25.6 516.386 27.6C518.946 29.5733 520.519 32.5067 521.106 36.4L514.586 37.64L514.506 37.6C514.052 34.7733 513.306 32.8933 512.266 31.96C511.226 31 509.239 30.52 506.306 30.52C502.732 30.52 500.239 31.1333 498.826 32.36C497.439 33.5867 496.746 35.8 496.746 39C496.746 42.2267 497.452 44.4533 498.866 45.68C500.279 46.88 502.759 47.48 506.306 47.48C509.239 47.48 511.226 47 512.266 46.04C513.332 45.0533 514.079 43.16 514.506 40.36L514.586 40.32L521.106 41.56C520.519 45.48 518.946 48.44 516.386 50.44C513.852 52.4133 510.492 53.4 506.306 53.4C501.452 53.4 497.519 52.1067 494.506 49.52C491.492 46.9333 489.986 43.4533 489.986 39.08C489.986 34.6 491.439 31.0667 494.346 28.48ZM537.325 25H546.285L557.685 53H550.925L548.565 47.04H535.045L532.645 53H525.845L537.325 25ZM537.205 41.32H546.365L543.765 34.96L541.885 30H541.685L539.805 34.96L537.205 41.32ZM570.382 47H585.022V53H563.822V25H570.382V47ZM591.187 25H612.667V30.96H597.587V35.68H611.347V41.44H597.587V47.04H612.667V53H591.187V25ZM629.459 25L640.619 40.56L643.259 44.32H643.419L643.379 40.64V25H649.859V53H641.539L630.059 36.84L627.379 33H627.219L627.259 36.84V53H620.779V25H629.459ZM673.452 25C678.039 25 681.599 26.2667 684.132 28.8C686.692 31.3067 687.972 34.7067 687.972 39C687.972 43.32 686.692 46.7333 684.132 49.24C681.572 51.7467 678.012 53 673.452 53H658.692V25H673.452ZM665.212 30.96V47H673.292C676.305 47 678.385 46.4267 679.532 45.28C680.705 44.1067 681.292 42.0133 681.292 39C681.292 35.9867 680.705 33.8933 679.532 32.72C678.385 31.5467 676.305 30.96 673.292 30.96H665.212ZM703.802 25H712.762L724.162 53H717.402L715.042 47.04H701.522L699.122 53H692.322L703.802 25ZM703.682 41.32H712.842L710.242 34.96L708.362 30H708.162L706.282 34.96L703.682 41.32ZM745.578 25C748.698 25 751.151 25.7733 752.938 27.32C754.725 28.84 755.618 30.96 755.618 33.68C755.618 35.8933 755.045 37.7333 753.898 39.2C752.751 40.6667 751.178 41.4 749.178 41.4V41.56L756.738 53H750.218L743.458 42.44H736.818V53H730.298V25H745.578ZM744.738 37C746.258 37 747.325 36.7733 747.938 36.32C748.578 35.8667 748.898 35.0133 748.898 33.76C748.898 32.5333 748.578 31.7067 747.938 31.28C747.325 30.8267 746.258 30.6 744.738 30.6H736.818V37H744.738Z" fill="white"/>
<path fill-rule="evenodd" clip-rule="evenodd" d="M1222 34H1220V50H1222V34ZM1217 40H1215V50H1217V40ZM1210 44H1212V50H1210V44Z" fill="white"/>
<defs>
<filter id="filter0_d_287_32020" x="0" y="0" width="1266.82" height="820.268" filterUnits="userSpaceOnUse" color-interpolation-filters="sRGB">
<feFlood flood-opacity="0" result="BackgroundImageFix"/>
<feColorMatrix in="SourceAlpha" type="matrix" values="0 0 0 0 0 0 0 0 0 0 0 0 0 0 0 0 0 0 127 0" result="hardAlpha"/>
<feOffset dx="22.6857" dy="26.2677"/>
<feComposite in2="hardAlpha" operator="out"/>
<feColorMatrix type="matrix" values="0 0 0 0 0 0 0 0 0 0 0 0 0 0 0 0 0 0 1 0"/>
<feBlend mode="normal" in2="BackgroundImageFix" result="effect1_dropShadow_287_32020"/>
<feBlend mode="normal" in="SourceGraphic" in2="effect1_dropShadow_287_32020" result="shape"/>
</filter>
</defs>
</svg>
